<?xml version="1.0" encoding="UTF-8" standalone="no"?><!DOCTYPE svg PUBLIC "-//W3C//DTD SVG 1.1//EN" "http://www.w3.org/Graphics/SVG/1.1/DTD/svg11.dtd"><svg width="100%" height="100%" viewBox="0 0 2250 2250" version="1.1" xmlns="http://www.w3.org/2000/svg" xmlns:xlink="http://www.w3.org/1999/xlink" xml:space="preserve" xmlns:serif="http://www.serif.com/" style="fill-rule:evenodd;clip-rule:evenodd;stroke-linejoin:round;stroke-miterlimit:2;"><g><path d="M831.201,1677.66l19.224,-0c4.626,-10.094 13.423,-26.618 28.891,-55.709c7.125,-13.396 15.053,-28.169 23.182,-43.329l-71.297,0c-27.327,0 -49.506,22.166 -49.506,49.519c0,27.353 22.179,49.519 49.506,49.519Z" style="fill:#f5c51f;fill-rule:nonzero;"/><path d="M1757.85,1677.66l-19.238,-0c-4.585,-10.094 -13.409,-26.618 -28.877,-55.709c-7.112,-13.396 -15.054,-28.169 -23.169,-43.329l71.284,0c27.34,0 49.519,22.166 49.519,49.519c-0,27.353 -22.179,49.519 -49.519,49.519Z" style="fill:#f5c51f;fill-rule:nonzero;"/><path d="M860.626,2043.81l-0,63.142c-0,36.845 29.88,66.751 66.751,66.751c36.859,0 66.752,-29.906 66.752,-66.751l-0,-63.142l-133.503,0Z" style="fill:#f5c51f;fill-rule:nonzero;"/><path d="M1594.93,2043.81l0,63.142c0,36.845 29.893,66.751 66.752,66.751c36.858,0 66.764,-29.906 66.764,-66.751l0,-63.142l-133.516,0Z" style="fill:#f5c51f;fill-rule:nonzero;"/><path d="M1763.14,1734.33c-3.048,-3.276 -44.158,-44.225 -44.158,-44.225c3.383,0.963 -123.57,-232.019 -129.652,-244.639c-16.07,-33.37 -55.629,-53.49 -94.279,-53.49l-401.043,0c-38.65,0 -78.236,20.12 -94.292,53.49c-6.056,12.62 -133.022,245.602 -129.626,244.639c0,0 -41.136,40.949 -44.198,44.225c-17.3,18.543 -16.069,34.626 -16.069,50.695l-0,185.428c-0,34.626 6.189,53.57 46.978,53.57l875.443,0c40.802,0 46.992,-18.944 46.992,-53.57l0,-185.428c0,-16.069 1.204,-32.152 -16.096,-50.695Zm-788.023,-115.722c-0,-0 81.537,-146.872 86.364,-156.511c8.235,-16.377 31.671,-28.289 55.722,-28.289l354.64,-0c24.051,-0 47.486,11.912 55.722,28.289c4.839,9.639 86.364,156.511 86.364,156.511c7.526,13.516 0.909,38.663 -21.351,38.663l-596.097,-0c-22.246,-0 -28.877,-25.147 -21.364,-38.663Zm-10.896,326.645c-41.39,-0 -74.92,-33.556 -74.92,-74.947c0,-41.364 33.53,-74.906 74.92,-74.906c41.391,-0 74.934,33.542 74.934,74.906c-0,41.391 -33.543,74.947 -74.934,74.947Zm444.039,20.267c-0,5.455 -4.425,9.893 -9.907,9.893l-207.661,0c-5.468,0 -9.906,-4.438 -9.906,-9.893l-0,-91.497c-0,-5.455 4.438,-9.853 9.906,-9.853l207.661,-0c5.482,-0 9.907,4.398 9.907,9.853l-0,91.497Zm216.564,-20.267c-41.377,-0 -74.933,-33.556 -74.933,-74.947c-0,-41.364 33.556,-74.893 74.933,-74.893c41.364,-0 74.934,33.529 74.934,74.893c-0,41.391 -33.57,74.947 -74.934,74.947Z" style="fill:#f5c51f;fill-rule:nonzero;"/><path d="M991.018,980.305l-76.899,4.98c3.757,-22.962 11.781,-65.512 21.82,-108.098l125.109,5.201c26,-0.252 47.258,20.616 47.508,46.589c0.011,0.47 -0.043,0.947 -0.06,1.406c0.574,7.819 -0.778,15.878 -4.372,23.474l-94.379,174.901c-8.594,18.173 -30.328,25.954 -48.504,17.334c-18.2,-8.605 -25.981,-30.338 -17.361,-48.514l47.138,-117.273Z" style="fill:#f5c51f;fill-rule:nonzero;"/><path d="M896.615,999.053l-9.688,80.843c-1.745,13.591 -8.578,32.24 -14.094,39.619l-128.751,151.132c-12.228,15.98 -35.09,19.044 -51.072,6.804c-15.99,-12.2 -19.057,-35.076 -6.831,-51.069l93.974,-145.25l-9.781,-142.034c-7.831,-83.188 13.498,-218.348 77.648,-294.494l-53.406,-96.767l-75.032,-132.337c-9.282,-13.321 -6.02,-31.668 7.311,-40.978c13.32,-9.295 31.64,-6.031 40.95,7.301l92.26,120.563l109.55,136.586c33.659,43.138 9.962,75.498 -14.958,126.517c-28.496,58.303 -56.551,216.217 -58.08,233.564Z" style="fill:#f5c51f;fill-rule:nonzero;"/><path d="M1100.28,489.704l36.298,-31.54c11.792,-11.184 30.409,-10.697 41.604,1.08c11.183,11.792 10.698,30.422 -1.095,41.606l-36.464,37.787c-7.047,-20.443 -21.251,-37.993 -40.343,-48.933Z" style="fill:#f5c51f;fill-rule:nonzero;"/><path d="M975.553,556.237c-8.532,40.885 17.708,80.933 58.54,89.471c40.887,8.559 80.965,-17.658 89.497,-58.543c8.535,-40.859 -17.68,-80.923 -58.567,-89.468c-40.858,-8.535 -80.922,17.68 -89.47,58.54Z" style="fill:#f5c51f;fill-rule:nonzero;"/><path d="M450.907,216.377c-10.077,8.818 -11.085,24.117 -2.27,34.183l105.338,120.258c8.825,10.063 24.135,11.069 34.191,2.256l153.037,-134.077c10.077,-8.818 11.095,-24.12 2.273,-34.173l-105.351,-120.266c-8.812,-10.056 -24.118,-11.084 -34.181,-2.259l-153.037,134.078Z" style="fill:#f5c51f;fill-rule:nonzero;"/><path d="M717.032,307.445c-2.756,-3.143 -6.568,-4.335 -8.491,-2.662l-50.866,44.551c-1.919,1.683 -1.242,5.616 1.516,8.77l20.049,22.876c2.758,3.153 6.581,4.342 8.48,2.665l50.876,-44.553c1.927,-1.696 1.233,-5.614 -1.515,-8.771l-20.049,-22.876Z" style="fill:#f5c51f;fill-rule:nonzero;"/></g></svg>