<?xml version="1.0" encoding="UTF-8" standalone="no"?><!DOCTYPE svg PUBLIC "-//W3C//DTD SVG 1.1//EN" "http://www.w3.org/Graphics/SVG/1.1/DTD/svg11.dtd"><svg width="100%" height="100%" viewBox="0 0 2250 2250" version="1.1" xmlns="http://www.w3.org/2000/svg" xmlns:xlink="http://www.w3.org/1999/xlink" xml:space="preserve" xmlns:serif="http://www.serif.com/" style="fill-rule:evenodd;clip-rule:evenodd;stroke-linejoin:round;stroke-miterlimit:2;"><g id="The-Killer" serif:id="The Killer"><path d="M1439.42,1713.3c-59.451,-60.332 -58.71,-157.485 1.607,-216.92c60.38,-59.483 157.485,-58.774 216.936,1.559c59.467,60.348 58.758,157.47 -1.591,216.968c-60.317,59.435 -157.454,58.742 -216.952,-1.607Z" style="fill:#f5c51f;fill-rule:nonzero;"/><path d="M191.992,682.308l338.72,198.794l219.834,192.936c0,-0 185.518,206.888 311.665,344.122l-91.515,4.567c-40.443,0.22 -83.546,25.355 -72.806,73.687l79.719,307.05c8.567,31.844 41.309,50.71 73.152,42.175c31.828,-8.536 50.711,-41.277 42.159,-73.121l-30.788,-203.172c-0,-0 116.051,10.394 152.446,5.181c55.419,-3.449 147.233,-41.497 206.92,-100.318c25.765,-25.371 70.239,-76.365 120.477,-95.421l164.588,-51.97l241.095,192.51c28.505,25.056 71.971,22.3 97.042,-6.22c25.072,-28.505 22.301,-71.955 -6.22,-97.043l-255.883,-245.804c-21.859,-19.26 -50.631,-25.197 -76.837,-18.362l-224.653,46.978c-0.347,-0.331 -0.615,-0.646 -0.93,-0.993c-60.931,-61.813 -262.308,-251.189 -356.122,-339.114l58.034,-255.772c16.126,-50.175 -12.048,-101.988 -62.239,-118.114l-387.304,-106.051c-40.915,-13.166 -84.743,9.307 -97.925,50.222c-13.15,40.915 9.339,84.759 50.254,97.925l288.025,112.098l-86.947,264.859l-258.387,-186.683l-362.658,-172.415c-37.97,-20.159 -85.058,-5.717 -105.201,32.253c-20.126,37.969 -5.701,85.073 32.285,105.216Z" style="fill:#f5c51f;fill-rule:nonzero;"/><path d="M1514.57,1081.38l-19.292,-17.796l7.04,-7.638l15.103,13.953c3.606,-0.945 10.614,-2.74 19.937,-5.103l2.552,10.079c-13.906,3.512 -22.599,5.78 -22.599,5.78l-2.741,0.725Z" style="fill:#f5c51f;fill-rule:nonzero;"/><path d="M1461.17,1032.1l-16.268,-15.024c-0,0 -7.071,-5.953 -18.426,-15.796l6.803,-7.858c11.434,9.905 18.473,15.859 18.505,15.874l16.457,15.182l-7.071,7.622Zm-69.672,-61.655c-12.016,-10.757 -23.591,-21.34 -34.41,-31.45l7.071,-7.607c10.788,10.048 22.331,20.599 34.269,31.324l-6.93,7.733Zm-68.128,-63.719c-12.237,-12.064 -23.229,-23.34 -32.599,-33.513l7.622,-7.055c9.291,10.047 20.142,21.213 32.268,33.166l-7.291,7.402Zm-62.868,-69.656c-9.938,-13.78 -14.741,-24.143 -14.772,-31.67c-0,-3.67 0.441,-8.536 1.323,-14.914l10.315,1.417c-0.835,5.811 -1.229,10.347 -1.229,13.481c0,2.929 1.654,10.158 12.788,25.623l-8.425,6.063Zm5.165,-90.554l-10.157,-2.079c2.188,-10.646 4.598,-22.127 7.149,-34.112l2.425,-11.401l10.143,2.157l-2.394,11.386c-2.552,11.969 -4.977,23.434 -7.166,34.049Zm18.977,-91.011l-10.173,-2.047c3.433,-17.198 6.236,-32.096 8.551,-45.514l10.237,1.748c-2.331,13.528 -5.134,28.505 -8.615,45.813Zm15.324,-92.129l-10.331,-1.118c1.291,-11.875 1.937,-22.206 1.937,-30.694c-0,-5.497 -0.284,-10.332 -0.835,-14.395l10.299,-1.37c0.615,4.52 0.93,9.827 0.93,15.765c-0,8.85 -0.677,19.559 -2,31.812Zm-28.584,-84.869c-8.363,-11.009 -18.82,-20.505 -32.851,-29.86l5.795,-8.646c15.008,10.017 26.237,20.269 35.34,32.206l-8.284,6.3Zm-747.049,-21.466l-10.221,-1.811c2.819,-16.158 6.504,-31.576 10.945,-45.781l9.922,3.087c-4.299,13.796 -7.89,28.757 -10.646,44.505Zm674.306,-30.221c-12.362,-5.764 -26.63,-11.701 -42.442,-17.686l3.685,-9.732c16.032,6.079 30.552,12.142 43.135,17.984l-4.378,9.434Zm-85.955,-33.088c-9.308,-3.102 -19.166,-6.284 -29.592,-9.528c-4.819,-1.512 -9.67,-3.008 -14.489,-4.472l3.008,-9.953c4.867,1.48 9.717,2.976 14.568,4.488c10.504,3.291 20.426,6.488 29.796,9.591l-3.291,9.874Zm-560.413,-23.15l-9.166,-4.914c8.174,-15.26 17.717,-28.205 28.316,-38.521l7.229,7.449c-9.827,9.575 -18.71,21.67 -26.379,35.986Zm471.843,-3.638c-14.678,-4.016 -29.749,-7.938 -44.805,-11.654l2.488,-10.095c15.135,3.732 30.301,7.67 45.041,11.717l-2.724,10.032Zm-89.877,-22.221c-14.977,-3.323 -30.222,-6.52 -45.309,-9.497l2.016,-10.189c15.15,2.976 30.489,6.189 45.545,9.528l-2.252,10.158Zm-90.838,-17.907c-15.355,-2.645 -30.725,-5.102 -45.702,-7.291l1.48,-10.284c15.071,2.189 30.552,4.677 45.986,7.339l-1.764,10.236Zm-91.578,-13.323c-16.016,-1.842 -31.497,-3.37 -46.017,-4.488l0.803,-10.363c14.646,1.134 30.253,2.678 46.411,4.536l-1.197,10.315Zm-136.083,-1.937l-3.323,-9.859c11.118,-3.732 23.119,-5.622 35.67,-5.622c3.827,0 7.78,0.048 11.875,0.142l-0.221,10.394c-4.032,-0.095 -7.906,-0.142 -11.654,-0.142c-11.418,0 -22.315,1.717 -32.347,5.087Z" style="fill:#f5c51f;fill-rule:nonzero;"/><path d="M518.161,532.681l-7.276,-3.181c-7.308,-3.182 -14.442,-6.332 -21.434,-9.45l4.221,-9.496c4.661,2.079 9.402,4.173 14.189,6.268c0.126,-5.055 0.378,-10.347 0.74,-15.796l10.363,0.693c-0.536,8.11 -0.803,15.859 -0.803,23.024l-0,7.938Z" style="fill:#f5c51f;fill-rule:nonzero;"/><path d="M786.721,1295.71c-9.166,-10.961 -19.261,-23.009 -29.859,-35.529l7.937,-6.709c10.599,12.551 20.725,24.599 29.906,35.576l-7.984,6.662Zm-59.923,-70.932c-10.174,-11.875 -20.395,-23.749 -30.285,-35.119l7.827,-6.835c9.922,11.402 20.158,23.292 30.379,35.229l-7.921,6.725Zm-60.979,-69.892c-13.024,-14.473 -23.623,-25.828 -31.528,-33.749l7.354,-7.339c8.032,8.047 18.757,19.544 31.907,34.143l-7.733,6.945Zm-64.238,-66.711c-11.56,-11.56 -22.379,-22.174 -33.072,-32.489l7.197,-7.481c10.756,10.363 21.623,21.04 33.214,32.615l-7.339,7.355Zm-66.79,-64.254c-11.433,-10.536 -23.024,-20.962 -34.411,-30.978l6.851,-7.811c11.465,10.063 23.103,20.536 34.615,31.135l-7.055,7.654Zm-69.577,-61.089c-11.922,-9.953 -24.017,-19.764 -35.954,-29.166l6.441,-8.158c12,9.449 24.174,19.323 36.175,29.34l-6.662,7.984Zm-72.695,-57.277c-12.473,-9.245 -25.119,-18.316 -37.592,-26.962l5.937,-8.536c12.552,8.694 25.292,17.827 37.859,27.151l-6.204,8.347Zm-76.019,-52.648c-13.087,-8.41 -26.316,-16.583 -39.34,-24.269l5.292,-8.945c13.134,7.764 26.489,15.985 39.655,24.474l-5.607,8.74Zm-79.593,-46.947c-13.749,-7.37 -27.607,-14.394 -41.167,-20.898l4.488,-9.386c13.717,6.567 27.702,13.685 41.608,21.135l-4.929,9.149Zm-82.318,-43.718c-13.748,-8.992 -26.237,-18.85 -37.119,-29.276l7.197,-7.512c10.41,10 22.394,19.449 35.607,28.111l-5.685,8.677Zm-67.435,-65.844c-8.725,-13.607 -15.512,-28.112 -20.158,-43.167l9.937,-3.071c4.362,14.158 10.756,27.812 18.961,40.616l-8.74,5.622Zm-27.796,-90.224c-0.048,-1.543 -0.063,-3.102 -0.063,-4.661c-0,-14.079 1.622,-28.427 4.882,-42.663l10.126,2.315c-3.055,13.465 -4.614,27.056 -4.614,40.348c-0,1.464 0.015,2.945 0.047,4.409l-10.378,0.252Zm29.906,-87.577l-9.355,-4.52c6.993,-14.489 15.497,-28.033 25.277,-40.206l8.111,6.504c-9.292,11.559 -17.387,24.426 -24.033,38.222Zm357.839,-17.607l-11.056,-5.024c-10.787,-4.882 -21.166,-9.607 -31.197,-14.111l4.268,-9.48c10.031,4.504 20.425,9.228 31.213,14.142l11.056,5.008l-4.284,9.465Zm-84.633,-37.718c-16.189,-6.851 -30.221,-12.363 -42.899,-16.883l3.512,-9.795c12.835,4.598 27.056,10.189 43.435,17.118l-4.048,9.56Zm-216.747,-13.78l-5.953,-8.52c9.449,-6.599 19.055,-11.544 28.552,-14.709c5.134,-1.717 10.331,-3.213 15.481,-4.457l2.441,10.11c-4.851,1.166 -9.78,2.599 -14.631,4.205c-8.551,2.851 -17.26,7.339 -25.89,13.371Zm130.02,-16.253c-16.032,-3.716 -30.71,-5.685 -44.852,-6.032l0.268,-10.378c14.835,0.362 30.19,2.41 46.93,6.284l-2.346,10.126Z" style="fill:#f5c51f;fill-rule:nonzero;"/><path d="M814.643,1357.31l-3.732,-9.717c5.732,-2.189 10.913,-3.779 14.929,-4.866c-2.441,-2.961 -5.685,-6.866 -9.559,-11.544l8,-6.646c9.339,11.276 14.914,18.032 14.914,18.032l5.654,6.867l-8.756,1.559c-0.111,0.016 -9.575,1.732 -21.45,6.315Z" style="fill:#f5c51f;fill-rule:nonzero;"/><path d="M1037.86,1953.93c-8.409,-0 -16.646,-0.331 -24.52,-1.008l0.882,-10.347c15.071,1.276 31.953,1.244 47.072,0.079l0.787,10.378c-7.779,0.598 -15.937,0.898 -24.221,0.898Zm72.444,-9.402l-2.961,-9.969c16.189,-4.819 30.111,-11.512 41.34,-19.89l6.221,8.331c-12.221,9.118 -27.23,16.362 -44.6,21.528Zm-145.092,-0.851c-16.284,-5.149 -31.214,-12.378 -44.379,-21.449l5.889,-8.567c12.332,8.504 26.332,15.26 41.64,20.111l-3.15,9.905Zm-80.034,-55.623c-9.465,-12.473 -17.591,-26.883 -24.143,-42.868l9.623,-3.937c6.205,15.134 13.858,28.757 22.804,40.489l-8.284,6.316Zm300.294,-5.009l-9.843,-3.354c1.968,-5.795 2.992,-11.717 2.992,-17.575c-0,-2.111 -0.126,-4.221 -0.41,-6.284c-0.582,-4.725 -1.968,-11.371 -4.267,-20.363l10.079,-2.551c2.409,9.402 3.89,16.488 4.504,21.623c0.33,2.504 0.488,5.039 0.488,7.575c0,7.008 -1.197,14.047 -3.543,20.929Zm-338.799,-84.365c-3.418,-13.213 -7.418,-29.04 -11.812,-46.631l10.095,-2.52c4.378,17.56 8.378,33.371 11.796,46.553l-10.079,2.598Zm314.168,-9.213l-5.638,-18.646c-2.756,-9.102 -5.559,-18.315 -8.237,-27.371l9.938,-2.961c2.708,9.04 5.496,18.222 8.236,27.324l5.67,18.662l-9.969,2.992Zm-337.524,-84.097c-3.716,-15.071 -7.543,-30.757 -11.417,-46.694l10.11,-2.457c3.874,15.937 7.686,31.607 11.387,46.679l-10.08,2.472Zm310.531,-8.378c-4.552,-17.922 -6.662,-29.733 -6.662,-37.167c0,-11.402 5.953,-12.646 8.536,-12.646c0.677,0 1.354,0.095 2.094,0.268l1.449,0.331l-2.031,9.307c0.394,-0.252 0.614,-0.52 0.708,-0.724c0,0.031 -0.362,0.85 -0.362,3.464c0,6.378 2.126,18.017 6.347,34.616l-10.079,2.551Zm67.041,-34.647c-5.165,0 -10.22,-0.063 -15.102,-0.205l0.267,-10.394c4.961,0.142 10.095,0.221 15.324,0.221c11.134,-0 21.969,-0.347 32.205,-1.008l0.646,10.378c-10.425,0.662 -21.497,1.008 -32.851,1.008l-0.489,0Zm-400.312,-50.364c-3.812,-15.796 -7.576,-31.481 -11.245,-46.71l10.111,-2.441c3.653,15.245 7.433,30.93 11.244,46.71l-10.11,2.441Zm-22.411,-93.468c-4.047,-17.039 -7.811,-32.851 -11.102,-46.789l10.126,-2.378c3.291,13.938 7.04,29.734 11.087,46.758l-10.111,2.409Zm-21.922,-94.034c-0.567,-3.685 -0.866,-7.355 -0.866,-10.882c0,-14.221 4.662,-27.041 13.859,-38.144l8,6.631c-7.606,9.181 -11.465,19.796 -11.465,31.513c0,3.007 0.252,6.11 0.741,9.291l-10.269,1.591Z" style="fill:#f5c51f;fill-rule:nonzero;"/><path d="M1303.35,1666.31c-1.638,-5.591 -3.056,-11.213 -4.253,-16.82c-4.976,1.969 -10.677,3.748 -17.04,5.26l-2.425,-10.095c8.363,-2.015 15.434,-4.441 20.946,-7.197l6.173,-3.102l1.26,6.803c1.355,7.371 3.15,14.835 5.323,22.221l-9.984,2.93Z" style="fill:#f5c51f;fill-rule:nonzero;"/><path d="M1554.31,1857.78l-3.528,-0.032l0.111,-10.378l3.417,0.016c13.937,-0 28.174,-1.197 42.332,-3.528l1.685,10.237c-14.709,2.456 -29.528,3.685 -44.017,3.685Zm-51.025,-5.166c-15.528,-3.197 -30.883,-7.937 -45.624,-14.063l3.969,-9.591c14.158,5.874 28.851,10.41 43.781,13.465l-2.126,10.189Zm141.249,-10.079l-3.292,-9.858c14.142,-4.725 28.442,-10.678 42.569,-17.655l4.614,9.324c-14.552,7.197 -29.324,13.323 -43.891,18.189Zm-229.063,-26.331c-13.198,-8.631 -25.781,-18.568 -37.435,-29.545l7.134,-7.559c11.198,10.567 23.308,20.111 35.986,28.395l-5.685,8.709Zm313.176,-18.285l-7.072,-7.606c10.646,-9.843 19.97,-21.812 27.686,-35.544l9.072,5.102c-8.268,14.678 -18.269,27.481 -29.686,38.048Zm-382.36,-46.82c-9.591,-12.756 -18.079,-26.363 -25.245,-40.442l9.26,-4.725c6.882,13.56 15.072,26.647 24.3,38.946l-8.315,6.221Zm430.314,-35.545l-9.953,-2.881c4.047,-14.143 6.976,-29.309 8.599,-45.057l10.346,1.071c-1.7,16.363 -4.708,32.127 -8.992,46.867Zm260.749,-69.498c-9.418,0 -19.103,-0.646 -28.757,-1.905l1.323,-10.3c15.528,2.031 31.041,2.362 45.576,0.976l0.993,10.331c-6.253,0.599 -12.678,0.898 -19.135,0.898Zm66.002,-11.811l-3.779,-9.686c14.394,-5.638 27.371,-13.37 38.536,-23.008l6.772,7.89c-12.047,10.362 -26.016,18.725 -41.529,24.804Zm-141.327,-0.819c-14.835,-4.898 -29.592,-11.213 -43.797,-18.773l4.85,-9.181c13.717,7.276 27.938,13.37 42.207,18.095l-3.26,9.859Zm-185.692,-11.78c-0.96,-16.772 -3.354,-32.364 -6.992,-45.104l10,-2.835c3.811,13.449 6.378,29.828 7.355,47.34l-10.363,0.599Zm101.752,-32.631c-2.284,-1.701 -4.489,-3.434 -6.741,-5.229c-10.85,-8.662 -21.071,-16.473 -30.363,-23.197l6.126,-8.426c9.418,6.819 19.749,14.725 30.726,23.513c2.157,1.716 4.346,3.417 6.52,5.071l-6.268,8.268Zm297.285,-17.166l-9.071,-5.055c7.465,-13.497 12.237,-27.718 14.08,-42.317l10.33,1.323c-2.062,15.906 -7.197,31.387 -15.339,46.049Zm-373.146,-36.175c-14.331,-7.622 -22.269,-9.197 -26.379,-9.197c-4.677,0 -6.126,1.89 -6.803,4.74l-10.127,-2.456c2,-8.174 8.001,-12.678 16.93,-12.678c7.843,0 18.048,3.386 31.245,10.394l-4.866,9.197Zm375.698,-55.923c-3.055,-13.591 -8.253,-28.001 -15.481,-42.836l9.354,-4.536c7.575,15.544 13.04,30.726 16.237,45.104l-10.11,2.268Zm-38.663,-82.68c-7.812,-11.67 -16.835,-23.906 -27.528,-37.387l8.11,-6.457c10.898,13.701 20.064,26.158 28.064,38.065l-8.646,5.779Zm-57.341,-73.309l-13.78,-16.08c-5.196,-6.063 -10.913,-12.441 -17.008,-18.992l7.622,-7.072c6.189,6.646 12.001,13.135 17.261,19.293l13.811,16.094l-7.906,6.757Zm-63.387,-68.396c-10.489,-10.237 -21.907,-21.041 -33.97,-32.096l7.024,-7.67c12.142,11.151 23.654,22.017 34.206,32.332l-7.26,7.434Zm-68.806,-63.262c-11.607,-10.095 -23.576,-20.332 -35.592,-30.364l6.678,-7.984c12.047,10.095 24.079,20.363 35.733,30.505l-6.819,7.843Zm-71.829,-59.971c-10.205,-8.158 -19.623,-15.481 -27.214,-21.166c-3.212,-2.394 -6.472,-4.929 -9.827,-7.512l6.41,-8.205c3.291,2.567 6.52,5.039 9.654,7.402c7.654,5.748 17.166,13.15 27.465,21.355l-6.488,8.126Zm-74.097,-57.01c-14.426,-10.362 -27.261,-18.189 -39.183,-23.953l4.52,-9.355c12.489,6.016 25.796,14.158 40.726,24.851l-6.063,8.457Zm-218.228,-11.528l-2.441,-10.095c14.52,-3.512 30.174,-7.197 45.718,-10.708l2.268,10.142c-15.465,3.496 -31.072,7.165 -45.545,10.661Zm91.247,-20.41l-2,-10.189c7.937,-1.559 15.418,-2.945 22.221,-4.079c8.363,-1.386 17.009,-1.669 25.686,-0.882l-0.992,10.363c-7.748,-0.725 -15.497,-0.473 -22.977,0.771c-6.741,1.134 -14.111,2.489 -21.938,4.016Z" style="fill:#f5c51f;fill-rule:nonzero;"/></g></svg>