<?xml version="1.0" encoding="UTF-8" standalone="no"?><!DOCTYPE svg PUBLIC "-//W3C//DTD SVG 1.1//EN" "http://www.w3.org/Graphics/SVG/1.1/DTD/svg11.dtd"><svg width="100%" height="100%" viewBox="0 0 1977 1898" version="1.1" xmlns="http://www.w3.org/2000/svg" xmlns:xlink="http://www.w3.org/1999/xlink" xml:space="preserve" xmlns:serif="http://www.serif.com/" style="fill-rule:evenodd;clip-rule:evenodd;stroke-linejoin:round;stroke-miterlimit:2;"><g id="alarm"><path d="M516.579,1571.94l-301.712,301.713c-15.442,15.442 -35.625,23.144 -55.846,23.144c-20.221,-0 -40.403,-7.702 -55.846,-23.144c-30.845,-30.846 -30.845,-80.846 0,-111.692l301.713,-301.712c33.214,41.024 70.667,78.477 111.691,111.691Z" style="fill:#151316;fill-rule:nonzero;"/><path d="M1460.25,1571.94c41.024,-33.214 78.477,-70.667 111.691,-111.691l301.713,301.712c30.846,30.846 30.846,80.846 -0,111.692c-15.442,15.442 -35.625,23.144 -55.846,23.144c-20.221,-0 -40.404,-7.702 -55.846,-23.144l-301.712,-301.713Z" style="fill:#151316;fill-rule:nonzero;"/><path d="M1896.8,988.414c-0,501.703 -406.679,908.382 -908.382,908.382c-501.704,-0 -908.383,-406.679 -908.383,-908.382c0,-501.664 406.679,-908.383 908.383,-908.383c501.703,0 908.382,406.719 908.382,908.383Zm-157.98,-0c0,-414.421 -335.982,-750.403 -750.402,-750.403c-414.421,-0 -750.403,335.982 -750.403,750.403c-0,414.42 335.982,750.402 750.403,750.402c414.42,0 750.402,-335.982 750.402,-750.402Z" style="fill:#151316;fill-rule:nonzero;stroke:#151316;stroke-width:2.08px;"/><path d="M1871.68,105.15c-64.339,-64.298 -153.202,-104.108 -251.346,-104.108c-88.074,-0 -174.884,25.948 -236.97,78.989c111.297,49.606 230.966,112.482 315.959,197.475l172.357,-172.356Z" style="fill:#151316;fill-rule:nonzero;stroke:#151316;stroke-width:2.08px;"/><path d="M1896.8,593.465c53.081,-62.086 78.989,-148.895 78.989,-236.969c0,-98.145 -39.77,-187.008 -104.107,-251.346l-172.357,172.356c84.994,85.033 147.869,204.702 197.475,315.959Z" style="fill:#151316;fill-rule:nonzero;stroke:#151316;stroke-width:2.08px;"/><path d="M277.506,277.506l-172.356,-172.356c-64.337,64.338 -104.108,153.201 -104.108,251.346c-0,88.074 25.909,174.883 78.989,236.969c49.606,-111.257 112.482,-230.926 197.475,-315.959Z" style="fill:#151316;fill-rule:nonzero;stroke:#151316;stroke-width:2.08px;"/><path d="M593.465,80.031c-62.086,-53.041 -148.895,-78.989 -236.969,-78.989c-98.145,-0 -187.008,39.81 -251.346,104.108l172.356,172.356c84.993,-84.993 204.663,-147.869 315.959,-197.475Z" style="fill:#151316;fill-rule:nonzero;stroke:#151316;stroke-width:2.08px;"/><path d="M1304.37,1027.91l-315.959,0c-21.802,0 -39.495,-17.693 -39.495,-39.494c-0,-21.802 17.693,-39.495 39.495,-39.495l315.959,-0c21.801,-0 39.494,17.693 39.494,39.495c0,21.801 -17.693,39.494 -39.494,39.494Z" style="fill:#151316;fill-rule:nonzero;"/><rect x="948.919" y="1501.85" width="78.99" height="157.98" style="fill:#151316;fill-rule:nonzero;"/><rect x="317.001" y="948.919" width="157.98" height="78.99" style="fill:#151316;fill-rule:nonzero;"/><rect x="948.919" y="317.001" width="78.99" height="157.98" style="fill:#151316;fill-rule:nonzero;"/><rect x="1501.85" y="948.919" width="157.98" height="78.99" style="fill:#151316;fill-rule:nonzero;"/><path d="M988.414,1027.91c-10.112,0 -20.222,-3.87 -27.923,-11.572l-276.464,-276.464c-15.443,-15.442 -15.443,-40.403 -0,-55.845c15.442,-15.443 40.403,-15.443 55.845,-0l276.464,276.464c15.443,15.442 15.443,40.403 0,55.845c-7.701,7.702 -17.811,11.572 -27.922,11.572Z" style="fill:#151316;fill-rule:nonzero;"/></g></svg>