<?xml version="1.0" encoding="UTF-8" standalone="no"?><!DOCTYPE svg PUBLIC "-//W3C//DTD SVG 1.1//EN" "http://www.w3.org/Graphics/SVG/1.1/DTD/svg11.dtd"><svg width="100%" height="100%" viewBox="0 0 1706 2133" version="1.1" xmlns="http://www.w3.org/2000/svg" xmlns:xlink="http://www.w3.org/1999/xlink" xml:space="preserve" xmlns:serif="http://www.serif.com/" style="fill-rule:evenodd;clip-rule:evenodd;stroke-linejoin:round;stroke-miterlimit:2;"><g id="Custodian-2" serif:id="Custodian 2"><path d="M42.653,1593.97l789.341,539.011l340.506,-534.832l-1129.85,-4.179Z"/><path d="M928.659,2084.61l737.32,-455.714l-428.264,-29.685l-309.056,485.399Z"/><path d="M1705.93,1575.26l-746.031,-1455.43l286.293,1424.5l459.738,30.936Z"/><path d="M1189.4,1542.62l-1189.4,-4.199l878.812,-1538.42l310.584,1542.62Zm-808.687,-437.587c-37.955,175.962 112.223,317.881 216.164,335.064c213.899,35.36 415.57,-137.681 415.57,-356.995c0,-156.295 -151.651,-283.665 -258.455,-283.665c-231.16,-0 -350.098,198.127 -373.279,305.596Z"/></g></svg>