<?xml version="1.0" encoding="UTF-8" standalone="no"?><!DOCTYPE svg PUBLIC "-//W3C//DTD SVG 1.1//EN" "http://www.w3.org/Graphics/SVG/1.1/DTD/svg11.dtd"><svg width="100%" height="100%" viewBox="0 0 2250 2250" version="1.1" xmlns="http://www.w3.org/2000/svg" xmlns:xlink="http://www.w3.org/1999/xlink" xml:space="preserve" xmlns:serif="http://www.serif.com/" style="fill-rule:evenodd;clip-rule:evenodd;stroke-linejoin:round;stroke-miterlimit:2;"><g id="Hanged-Man" serif:id="Hanged Man"><path d="M978.453,1985.76c-15.889,79.846 35.946,157.456 115.758,173.361c79.83,15.889 157.473,-35.93 173.361,-115.742c15.889,-79.846 -35.929,-157.456 -115.759,-173.361c-79.829,-15.905 -157.455,35.93 -173.36,115.742Z" style="fill:#f5c51f;fill-rule:nonzero;"/><path d="M1347.12,988.232c0,-30.141 -27.612,-54.786 -57.121,-57.147c1.587,41.444 3.02,79.159 4.348,113.764c27.419,-4.309 52.773,-27.986 52.773,-56.617Z" style="fill:#f5c51f;fill-rule:nonzero;"/><path d="M1282.39,794.34c0,5.407 -3.986,9.768 -8.903,9.768l-135.48,-0c-4.903,-0 -8.89,-4.361 -8.89,-9.768c0,-5.406 3.987,-9.767 8.89,-9.767l135.48,-0c4.917,-0 8.903,4.361 8.903,9.767Z" style="fill:#f5c51f;fill-rule:nonzero;"/><path d="M1282.39,765.799c0,5.406 -3.986,9.768 -8.903,9.768l-135.48,-0c-4.903,-0 -8.89,-4.362 -8.89,-9.768c0,-5.406 3.987,-9.78 8.89,-9.78l135.48,-0c4.917,-0 8.903,4.374 8.903,9.78Z" style="fill:#f5c51f;fill-rule:nonzero;"/><path d="M1282.39,739.8c0,5.406 -3.986,9.78 -8.903,9.78l-135.48,0c-4.903,0 -8.89,-4.374 -8.89,-9.78c0,-5.406 3.987,-9.781 8.89,-9.781l135.48,0c4.917,0 8.903,4.375 8.903,9.781Z" style="fill:#f5c51f;fill-rule:nonzero;"/><path d="M1243.25,876.609c0,4.774 -3.858,8.632 -8.619,8.632c-4.774,-0 -8.645,-3.858 -8.645,-8.632l0,-779.978c0,-4.748 3.871,-8.619 8.645,-8.619c4.761,-0 8.619,3.871 8.619,8.619l0,779.978Z" style="fill:#f5c51f;fill-rule:nonzero;"/><path d="M1429.83,1493.17l-126.202,-106.152l3.2,135.016l-13.303,-13.51l-4.336,-133.647c-0.503,-14.813 -1.058,-30.219 -1.69,-46.812l-5.11,-133.119c-4.167,-106.203 -10.257,-259.709 -19.857,-510.14c-0,-31.689 -25.69,-57.366 -57.366,-57.366c-31.702,-0 -57.405,25.677 -57.405,57.366l-13.006,295.811l-9.522,216.368l-1.355,0.013l-36.786,-175.079l30.49,0.516l4.322,-98.294c-42.979,-1.651 -89.468,-3.161 -125.868,-4.542c-52.334,-0.051 -55.714,54.063 -55.198,84.256l10.503,195.388l0,0.413l5.045,93.171l4.413,82.05l2.038,64.501c0,0 -8.309,133.571 -9.599,176.072c1.29,-42.501 6.645,-76.617 7.561,-106.926l-20.168,16.077l4.116,-76.565l-2.825,-56.476l-121.765,101.61c-16.425,15.213 -21.25,38.231 -14.115,58.024l82.926,173.286c42.903,72.462 98.527,108.758 236.032,108.758c137.506,-0 193.118,-36.296 236.032,-108.758l82.914,-173.286c7.162,-19.793 2.323,-42.811 -14.116,-58.024Z" style="fill:#f5c51f;fill-rule:nonzero;"/></g></svg>