<?xml version="1.0" encoding="UTF-8" standalone="no"?><!DOCTYPE svg PUBLIC "-//W3C//DTD SVG 1.1//EN" "http://www.w3.org/Graphics/SVG/1.1/DTD/svg11.dtd"><svg width="100%" height="100%" viewBox="0 0 2250 2250" version="1.1" xmlns="http://www.w3.org/2000/svg" xmlns:xlink="http://www.w3.org/1999/xlink" xml:space="preserve" xmlns:serif="http://www.serif.com/" style="fill-rule:evenodd;clip-rule:evenodd;stroke-linejoin:round;stroke-miterlimit:2;"><g><path d="M1836.45,2068.39l-231.482,-294.091l-25.244,-260.888c-8.656,-104.526 -25.316,-174.659 -43.049,-229.67c-32.072,-99.379 -71.902,-243.837 -71.902,-243.837l173.529,26.824l257.335,40.193c30.042,4.422 57.983,-16.312 62.405,-46.34c4.466,-30.014 -16.297,-57.94 -46.325,-62.391l-234.05,-60.477l-222.464,-53.329c-158.319,-48.863 -314.956,-13.166 -432.038,7.047c-98.973,17.109 -263.048,33.841 -263.048,33.841l-170.136,-134.728c-19.763,-23.069 -54.445,-25.751 -77.514,-5.974c-23.011,19.763 -25.678,54.474 -5.93,77.47l152.998,151.78c63.913,58.143 106.164,72.047 167.989,73.411l239.081,2.74l115.865,327.933l-191.392,181.822c-33.305,28.97 -57.998,84.517 -56.635,143.646l52.082,370.59c1.957,39.554 35.596,69.988 75.136,68.045c39.511,-1.943 69.945,-35.596 68.016,-75.077l-2.566,-358.6l218.158,-160.74l51.98,201.991c12.412,59.244 36.872,91.752 76.368,125.246l251.42,243.706c24.91,30.768 70.032,35.509 100.785,10.628c30.753,-24.896 35.524,-70.018 10.628,-100.771Z" style="fill:#f5c51f;fill-rule:nonzero;"/><path d="M1256.37,657.416c-14.862,-76.557 -88.968,-126.595 -165.525,-111.791c-76.6,14.862 -126.667,88.954 -111.805,165.525c14.833,76.572 88.925,126.623 165.525,111.791c76.543,-14.833 126.609,-88.954 111.805,-165.525Z" style="fill:#f5c51f;fill-rule:nonzero;"/><path d="M551.631,64.883c-3.799,0 -6.887,3.103 -6.887,6.916l1.276,28.999c-0,3.089 2.508,5.611 5.611,5.611c3.117,0 5.626,-2.522 5.626,-5.611l1.29,-28.999c0,-3.813 -3.103,-6.916 -6.916,-6.916Z" style="fill:#f5c51f;fill-rule:nonzero;"/><path d="M421.499,99.754c-3.291,1.9 -4.437,6.133 -2.523,9.439l15.601,24.475c1.566,2.683 5.003,3.596 7.685,2.059c2.682,-1.566 3.61,-5.002 2.059,-7.699l-13.397,-25.751c-1.9,-3.291 -6.119,-4.437 -9.425,-2.523Z" style="fill:#f5c51f;fill-rule:nonzero;"/><path d="M681.778,550.584c3.291,-1.914 4.422,-6.133 2.522,-9.425l-15.615,-24.489c-1.552,-2.683 -4.974,-3.611 -7.671,-2.059c-2.696,1.551 -3.61,4.988 -2.059,7.685l13.398,25.751c1.899,3.305 6.133,4.436 9.425,2.537Z" style="fill:#f5c51f;fill-rule:nonzero;"/><path d="M326.223,195.03c-1.899,3.291 -0.768,7.525 2.538,9.424l25.751,13.398c2.682,1.551 6.133,0.638 7.684,-2.059c1.552,-2.682 0.624,-6.133 -2.059,-7.685l-24.475,-15.616c-3.305,-1.899 -7.525,-0.768 -9.439,2.538Z" style="fill:#f5c51f;fill-rule:nonzero;"/><path d="M777.053,455.308c1.899,-3.306 0.768,-7.525 -2.537,-9.439l-25.751,-13.397c-2.697,-1.537 -6.133,-0.609 -7.685,2.059c-1.551,2.697 -0.638,6.147 2.059,7.699l24.49,15.616c3.291,1.885 7.525,0.768 9.424,-2.538Z" style="fill:#f5c51f;fill-rule:nonzero;"/><path d="M291.352,325.162c0,3.813 3.103,6.916 6.917,6.916l28.998,-1.29c3.103,-0 5.626,-2.509 5.626,-5.626c0,-3.103 -2.523,-5.626 -5.626,-5.626l-28.998,-1.261c-3.814,-0 -6.917,3.073 -6.917,6.887Z" style="fill:#f5c51f;fill-rule:nonzero;"/><path d="M811.91,325.162c-0,-3.814 -3.089,-6.887 -6.888,-6.887l-29.013,1.261c-3.103,0 -5.611,2.523 -5.611,5.626c-0,3.117 2.508,5.64 5.611,5.64l29.013,1.276c3.799,0 6.888,-3.088 6.888,-6.916Z" style="fill:#f5c51f;fill-rule:nonzero;"/><path d="M326.223,455.308c1.914,3.292 6.134,4.423 9.439,2.538l24.475,-15.616c2.683,-1.566 3.611,-5.002 2.059,-7.699c-1.551,-2.668 -5.002,-3.596 -7.699,-2.059l-25.736,13.397c-3.292,1.914 -4.437,6.133 -2.538,9.439Z" style="fill:#f5c51f;fill-rule:nonzero;"/><path d="M777.053,195.03c-1.899,-3.306 -6.133,-4.437 -9.424,-2.538l-24.49,15.616c-2.697,1.552 -3.61,5.003 -2.059,7.685c1.552,2.697 4.988,3.61 7.685,2.059l25.751,-13.398c3.305,-1.899 4.436,-6.133 2.537,-9.424Z" style="fill:#f5c51f;fill-rule:nonzero;"/><path d="M421.499,550.584c3.306,1.899 7.525,0.768 9.425,-2.537l13.397,-25.751c1.551,-2.697 0.623,-6.134 -2.045,-7.685c-2.696,-1.552 -6.147,-0.624 -7.699,2.044l-15.601,24.504c-1.914,3.292 -0.783,7.511 2.523,9.425Z" style="fill:#f5c51f;fill-rule:nonzero;"/><path d="M681.778,99.754c-3.292,-1.914 -7.526,-0.768 -9.425,2.523l-13.398,25.751c-1.551,2.697 -0.637,6.133 2.059,7.699c2.697,1.537 6.119,0.638 7.685,-2.059l15.601,-24.475c1.914,-3.306 0.783,-7.539 -2.522,-9.439Z" style="fill:#f5c51f;fill-rule:nonzero;"/><path d="M601.697,463.37l-106.657,-0l36.582,403.997l43.049,-0l27.026,-403.997Z" style="fill:#f5c51f;fill-rule:nonzero;"/><path d="M611.238,197.321c11.368,-1.334 21.387,1.74 14.47,8.83c-6.93,7.133 -18.631,20.763 -21.038,28.767c-2.799,9.381 -4.684,24.402 5.219,31.782c14.906,-12.89 54.823,-18.312 62.667,-11.106c7.844,7.177 -33.088,22.532 -22.242,77.209c11.411,46.818 -17.182,94.246 -63.87,105.933c-46.674,11.686 -96.899,-8.294 -119.866,-50.676c-12.223,-22.561 -9.469,-66.219 -2.857,-82.675c18.806,-55.446 67.654,-98.669 147.517,-108.064Z" style="fill:#f5c51f;fill-rule:nonzero;"/></g></svg>