<?xml version="1.0" encoding="UTF-8" standalone="no"?><!DOCTYPE svg PUBLIC "-//W3C//DTD SVG 1.1//EN" "http://www.w3.org/Graphics/SVG/1.1/DTD/svg11.dtd"><svg width="100%" height="100%" viewBox="0 0 2172 1494" version="1.1" xmlns="http://www.w3.org/2000/svg" xmlns:xlink="http://www.w3.org/1999/xlink" xml:space="preserve" xmlns:serif="http://www.serif.com/" style="fill-rule:evenodd;clip-rule:evenodd;stroke-linejoin:round;stroke-miterlimit:2;"><g id="eye"><path d="M2171.77,746.547c-0,93.691 -504.903,746.546 -1085.89,746.546c-580.983,0 -1085.89,-652.855 -1085.89,-746.546c0,-93.692 504.903,-746.547 1085.89,-746.547c580.983,0 1085.89,652.855 1085.89,746.547Zm-576.877,-0c-0,-281.109 -227.9,-509.009 -509.009,-509.009c-281.109,-0 -509.009,227.9 -509.009,509.009c-0,281.108 227.9,509.009 509.009,509.009c281.109,-0 509.009,-227.901 509.009,-509.009Z" style="fill:#151316;fill-rule:nonzero;"/><path d="M2069.97,746.547c0,93.691 -403.101,644.744 -984.084,644.744c-580.983,0 -984.084,-551.053 -984.084,-644.744c-0,-93.692 403.101,-644.745 984.084,-644.745c580.983,-0 984.084,551.053 984.084,644.745Zm-475.075,-0c-0,-281.109 -227.9,-509.009 -509.009,-509.009c-281.109,-0 -509.009,227.9 -509.009,509.009c-0,281.108 227.9,509.009 509.009,509.009c281.109,-0 509.009,-227.901 509.009,-509.009Z" style="fill:#151316;fill-rule:nonzero;"/><path d="M1383.19,582.818c26.792,48.546 42.038,104.356 42.038,163.729c0,187.417 -151.922,339.339 -339.339,339.339c-187.417,-0 -339.339,-151.922 -339.339,-339.339c-0,-187.418 151.922,-339.34 339.339,-339.34c59.372,0 115.182,15.247 163.729,42.038c-36.408,15.512 -61.927,51.621 -61.927,93.698c-0,56.229 45.573,101.802 101.802,101.802c42.076,-0 78.186,-25.52 93.697,-61.927Z" style="fill:#151316;fill-rule:nonzero;"/></g></svg>