<?xml version="1.0" encoding="UTF-8" standalone="no"?><!DOCTYPE svg PUBLIC "-//W3C//DTD SVG 1.1//EN" "http://www.w3.org/Graphics/SVG/1.1/DTD/svg11.dtd"><svg width="100%" height="100%" viewBox="0 0 2250 2250" version="1.1" xmlns="http://www.w3.org/2000/svg" xmlns:xlink="http://www.w3.org/1999/xlink" xml:space="preserve" xmlns:serif="http://www.serif.com/" style="fill-rule:evenodd;clip-rule:evenodd;stroke-linecap:round;stroke-linejoin:round;stroke-miterlimit:1.5;"><g id="Hourglass"><path d="M380.735,1384.33l784.781,784.78l-52.742,52.742l-784.78,-784.781l52.741,-52.741Z" style="fill:#151316;"/><path d="M476.061,1289.28l784.646,784.646l-52.742,52.742l-784.646,-784.646l52.742,-52.742Z" style="fill:#151316;"/><path d="M571.369,1193.97l784.646,784.646l-52.741,52.742l-784.646,-784.646l52.741,-52.742Z" style="fill:#151316;"/><path d="M666.453,1098.88l784.646,784.646l-52.742,52.742l-784.645,-784.646l52.741,-52.742Z" style="fill:#151316;"/><path d="M435.153,677.179l1111.15,1111.15l-52.742,52.741l-1111.15,-1111.15l52.741,-52.742Z" style="fill:#151316;"/><path d="M530.602,581.73l1111.15,1111.15l-52.742,52.742l-1111.15,-1111.15l52.741,-52.742Z" style="fill:#151316;"/><path d="M625.646,486.687l1111.15,1111.15l-52.741,52.742l-1111.15,-1111.15l52.742,-52.741Z" style="fill:#151316;"/><path d="M720.968,391.364l1111.15,1111.15l-52.742,52.742l-1111.15,-1111.15l52.742,-52.742Z" style="fill:#151316;"/><path d="M816.031,296.301l838.058,838.058l-52.741,52.742l-838.058,-838.058l52.741,-52.742Z" style="fill:#151316;"/><path d="M911.175,201.158l838.058,838.058l-52.742,52.741l-838.058,-838.058l52.742,-52.741Z" style="fill:#151316;"/><path d="M1006,106.335l838.058,838.058l-52.742,52.742l-838.058,-838.058l52.742,-52.742Z" style="fill:#151316;"/><path d="M1101.47,10.859l838.058,838.058l-52.741,52.742l-838.058,-838.058l52.741,-52.742Z" style="fill:#151316;"/><path d="M1121.39,2177.72l-19.967,-2114.18" style="fill:none;stroke:#151316;stroke-width:43.11px;"/></g></svg>