<?xml version="1.0" encoding="UTF-8" standalone="no"?><!DOCTYPE svg PUBLIC "-//W3C//DTD SVG 1.1//EN" "http://www.w3.org/Graphics/SVG/1.1/DTD/svg11.dtd"><svg width="100%" height="100%" viewBox="0 0 1740 2257" version="1.1" xmlns="http://www.w3.org/2000/svg" xmlns:xlink="http://www.w3.org/1999/xlink" xml:space="preserve" xmlns:serif="http://www.serif.com/" style="fill-rule:evenodd;clip-rule:evenodd;stroke-linejoin:round;stroke-miterlimit:2;"><path d="M761.961,4.398c617.505,-57.508 915.832,456.466 971.295,1102.43c55.426,645.53 -277.111,1101.09 -808.989,1146.37c-520.362,44.305 -921.362,-371.35 -924.244,-1050.26c-2.678,-631.027 223.715,-1148.42 761.938,-1198.55Zm-133.255,1724.56l-42.987,-267.594l-81.974,-32.816l-5.137,12.833c7.123,5.485 11.976,9.808 14.559,12.969c2.584,3.162 4.268,6.672 5.053,10.531c0.784,3.859 0.512,8.714 -0.816,14.563c-1.329,5.849 -4.405,14.798 -9.227,26.845l-90.688,226.54c-5.173,12.92 -9.584,22.296 -13.235,28.127c-3.651,5.831 -7.992,9.715 -13.021,11.652c-5.03,1.937 -13.516,2.135 -25.459,0.596l-5.138,12.832l95.592,38.268l5.138,-12.833c-7.193,-5.311 -12.16,-9.73 -14.9,-13.258c-2.741,-3.528 -4.399,-7.23 -4.974,-11.107c-0.575,-3.876 -0.172,-8.678 1.209,-14.405c1.381,-5.727 4.413,-14.44 9.096,-26.138l21.388,-53.427c13.979,-34.919 27.748,-70.074 41.308,-105.465c13.56,-35.392 22.42,-60.054 26.579,-73.987l4.453,1.782c0.591,8.138 1.409,16.467 2.455,24.989c1.045,8.521 3.067,22.194 6.065,41.019l47.954,303.008l32.737,13.105l117.528,-293.586c5.102,-12.745 9.295,-21.702 12.579,-26.87c3.285,-5.168 6.49,-8.746 9.616,-10.736c3.126,-1.99 6.654,-3.211 10.583,-3.664c3.929,-0.453 10.241,-0.155 18.937,0.896l5.137,-12.833l-94.283,-37.743l-5.137,12.833c7.123,5.484 11.933,9.79 14.429,12.916c2.496,3.127 4.066,6.541 4.712,10.243c0.645,3.702 0.198,8.486 -1.34,14.353c-1.538,5.867 -4.719,14.824 -9.542,26.871l-22.016,54.998c-10.205,25.491 -21.301,54.221 -33.288,86.19c-11.988,31.969 -19.677,53.454 -23.067,64.454l-3.405,-1.363c-0.626,-11.595 -1.504,-22.177 -2.637,-31.746c-1.132,-9.569 -2.744,-20.85 -4.836,-33.842Zm-26.889,-790.877l45.336,100.724c13.943,30.978 26.707,55.125 38.293,72.441c11.586,17.315 24.304,31.445 38.152,42.388c16.854,13.16 35.002,22.504 54.443,28.03c22.316,6.463 47,7.901 74.051,4.314c27.05,-3.587 56.25,-12.436 87.599,-26.546c30.977,-13.943 55.931,-29.747 74.86,-47.413c18.929,-17.666 32.441,-37.579 40.537,-59.738c8.095,-22.159 10.961,-46.147 8.599,-71.964c-2.363,-25.817 -11.434,-56.255 -27.214,-91.313l-54.854,-121.871l-13.634,6.136c1.513,9.804 2.089,16.907 1.727,21.308c-0.361,4.401 -1.638,8.377 -3.832,11.93c-2.193,3.553 -6.002,7.108 -11.428,10.665c-5.426,3.557 -14.631,8.258 -27.616,14.103l-240.68,108.33c-12.799,5.761 -22.376,9.513 -28.729,11.257c-6.353,1.745 -11.566,2.306 -15.638,1.685c-4.072,-0.621 -7.963,-2.327 -11.673,-5.119c-3.71,-2.791 -8.599,-7.953 -14.665,-15.483l-13.634,6.136Zm64.074,73.217l328.605,-147.904c5.835,10.981 11.591,22.778 17.269,35.392c12.357,27.454 17.416,53.563 15.178,78.327c-2.238,24.765 -13.018,48.021 -32.341,69.768c-19.323,21.747 -47.813,41.095 -85.468,58.044c-18.735,8.432 -36.508,15.038 -53.319,19.816c-16.811,4.778 -32.789,7.564 -47.935,8.358c-15.147,0.795 -29.477,-0.563 -42.991,-4.073c-13.514,-3.509 -25.308,-9.02 -35.381,-16.532c-10.074,-7.512 -19.164,-16.805 -27.271,-27.879c-8.108,-11.074 -15.668,-24.401 -22.681,-39.983c-6.513,-14.469 -11.068,-25.58 -13.665,-33.334Zm671.158,841.016l-56.407,-8.096l-9.298,64.784l56.406,8.096l9.299,-64.784Zm-415.65,-649.159l-1.042,-11.608l-80.078,7.187l-70.757,238.727l-103.849,-223.054l-84.579,7.592l1.042,11.609c7.45,1.401 12.75,2.796 15.899,4.185c3.15,1.389 5.757,3.384 7.822,5.985c2.064,2.601 3.714,6.354 4.951,11.258c1.236,4.905 2.343,12.806 3.322,23.704l18.394,204.931c1.05,11.688 1.316,20.421 0.8,26.199c-0.516,5.778 -2.295,10.356 -5.335,13.734c-3.04,3.378 -9.343,6.769 -18.909,10.175l1.042,11.609l86.474,-7.762l-1.042,-11.609c-7.436,-1.243 -12.857,-2.667 -16.265,-4.271c-3.408,-1.605 -6.069,-3.754 -7.983,-6.449c-1.913,-2.694 -3.445,-6.457 -4.595,-11.289c-1.151,-4.833 -2.201,-12.54 -3.151,-23.122l-7.783,-86.711c-2.396,-26.693 -5.083,-52.643 -8.062,-77.85c-2.98,-25.207 -5.296,-42.592 -6.951,-52.156l4.028,-0.361l108.599,230.747l27.245,-2.445l72.744,-243.204l4.028,-0.362c-0.14,9.088 0.53,25.865 2.01,50.331c1.48,24.466 3.29,48.624 5.431,72.473l8.144,90.739c1.149,12.793 1.339,22.01 0.572,27.652c-0.767,5.641 -2.761,10.04 -5.981,13.194c-3.219,3.155 -9.231,6.242 -18.035,9.262l1.042,11.609l98.793,-8.868l-1.042,-11.609c-7.435,-1.243 -12.857,-2.667 -16.265,-4.272c-3.408,-1.605 -6.069,-3.754 -7.982,-6.448c-1.914,-2.694 -3.446,-6.458 -4.596,-11.29c-1.15,-4.832 -2.2,-12.54 -3.15,-23.122l-18.395,-204.932c-0.978,-10.898 -1.267,-18.992 -0.866,-24.282c0.401,-5.29 1.392,-9.32 2.975,-12.089c1.582,-2.769 3.835,-5.16 6.759,-7.174c2.924,-2.014 7.783,-4.201 14.577,-6.563Zm241.698,-29.998l-222.112,-11.452l-0.6,11.64c7.179,2.435 12.23,4.561 15.153,6.379c2.923,1.818 5.224,4.159 6.903,7.025c1.678,2.865 2.784,6.813 3.319,11.842c0.535,5.029 0.52,13.008 -0.043,23.935l-10.594,205.483c-0.604,11.719 -1.568,20.403 -2.891,26.051c-1.324,5.648 -3.728,9.931 -7.213,12.847c-3.485,2.917 -10.202,5.389 -20.151,7.417l-0.601,11.64l219.974,11.341l8.812,-83.148l-23.518,-1.213c-3.722,10.606 -6.639,18.673 -8.75,24.201c-2.111,5.528 -4.648,10.836 -7.609,15.924c-2.962,5.087 -6.269,9.164 -9.92,12.231c-3.652,3.067 -7.927,5.149 -12.827,6.246c-4.899,1.097 -11.229,1.446 -18.989,1.045l-73.879,-3.809l7.067,-137.067l50.836,2.621c7.443,0.384 12.973,1.701 16.588,3.952c3.616,2.25 6.645,5.86 9.088,10.829c2.444,4.969 4.529,12.262 6.256,21.878l22.33,1.151l4.703,-91.22l-22.33,-1.151c-2.898,10.013 -5.776,17.328 -8.634,21.944c-2.858,4.617 -6.318,7.813 -10.379,9.588c-4.061,1.775 -9.576,2.484 -16.544,2.124l-50.836,-2.621l6.417,-124.477l75.067,3.87c6.176,0.319 11.459,1.028 15.848,2.127c4.39,1.1 8.147,2.921 11.271,5.464c3.124,2.543 5.93,5.864 8.418,9.962c2.488,4.098 4.848,9.142 7.08,15.132c2.232,5.99 4.335,12.927 6.311,20.809l23.28,1.2l3.699,-71.74Zm-602.265,-278.004l172.33,-28.191c53,-8.671 95.086,-18.325 126.257,-28.964c31.172,-10.639 57.938,-24.305 80.298,-40.997c26.971,-20.379 48.64,-44.29 65.006,-71.733c18.968,-31.453 31.226,-68.569 36.773,-111.35c5.547,-42.78 3.934,-90.988 -4.841,-144.623c-8.67,-53 -22.639,-97.557 -41.907,-133.671c-19.268,-36.115 -44.176,-64.87 -74.722,-86.268c-30.547,-21.397 -66.019,-35.554 -106.416,-42.468c-40.398,-6.915 -90.588,-5.466 -150.57,4.346l-208.51,34.11l3.816,23.327c15.591,1.685 26.674,3.701 33.249,6.047c6.576,2.346 12.129,5.918 16.662,10.716c4.532,4.799 8.409,12.066 11.631,21.804c3.223,9.737 6.651,25.714 10.285,47.93l67.363,411.783c3.583,21.898 5.411,38.055 5.486,48.47c0.074,10.416 -1.193,18.607 -3.801,24.573c-2.609,5.966 -6.801,11.214 -12.577,15.743c-5.777,4.53 -15.653,9.893 -29.628,16.089l3.816,23.327Zm137.952,-68.025l-91.972,-562.215c19.152,-4.437 39.518,-8.42 61.099,-11.951c46.97,-7.683 88.913,-4.769 125.828,8.744c36.914,13.513 68.042,39.459 93.383,77.838c25.341,38.379 43.282,89.781 53.821,154.207c5.244,32.054 8.089,61.893 8.534,89.519c0.446,27.625 -1.811,53.167 -6.772,76.625c-4.96,23.459 -12.875,44.794 -23.744,64.006c-10.87,19.212 -24.094,34.98 -39.675,47.304c-15.58,12.325 -33.48,22.422 -53.699,30.292c-20.219,7.869 -43.658,13.985 -70.317,18.346c-24.755,4.049 -43.583,6.478 -56.486,7.285Zm62.361,780.84l31.784,92.883l26.424,-9.042c-1.491,-15.392 -1.921,-28.413 -1.292,-39.064c0.629,-10.651 2.389,-19.303 5.28,-25.958c2.891,-6.654 6.776,-11.711 11.655,-15.169c4.879,-3.459 11.5,-6.619 19.863,-9.481l33.63,-11.508l93.526,273.313c3.654,10.677 5.935,18.94 6.844,24.791c0.909,5.851 1.066,10.667 0.471,14.449c-0.594,3.781 -1.831,7.136 -3.711,10.065c-1.88,2.93 -4.622,5.806 -8.228,8.63c-3.605,2.824 -7.864,5.772 -12.776,8.844l4.475,13.079l121.977,-41.74l-4.475,-13.078c-9.389,1.026 -16.48,1.216 -21.273,0.57c-4.793,-0.645 -9.014,-2.381 -12.665,-5.207c-3.65,-2.826 -7.119,-7.155 -10.407,-12.987c-3.287,-5.832 -6.728,-13.997 -10.32,-24.495l-93.526,-273.313l33.897,-11.6c9.787,-3.349 17.462,-4.882 23.025,-4.599c5.563,0.283 11.271,2.007 17.125,5.172c5.854,3.165 12.215,8.542 19.086,16.129c6.87,7.588 14.88,18.364 24.031,32.327l26.157,-8.951l-31.784,-92.884l-288.793,98.824Zm324.199,176.406l-27.924,-4.008l-10.982,76.511c36.746,15.344 69.733,25.114 98.96,29.309c18.058,2.592 34.947,3.069 50.666,1.43c15.72,-1.639 29.633,-5.912 41.739,-12.819c12.106,-6.907 22.2,-16.668 30.28,-29.283c8.081,-12.614 13.524,-28.695 16.329,-48.242c2.512,-17.499 1.033,-33.338 -4.436,-47.518c-5.47,-14.18 -14.032,-27.331 -25.687,-39.454c-11.654,-12.122 -28.541,-25.851 -50.659,-41.185c-18.344,-12.513 -31.981,-23.4 -40.911,-32.661c-8.931,-9.262 -15.115,-18.794 -18.553,-28.598c-3.437,-9.803 -4.208,-21.313 -2.311,-34.53c1.791,-12.473 6.126,-22.823 13.007,-31.05c6.881,-8.227 15.435,-13.887 25.664,-16.979c10.228,-3.091 21.393,-3.769 33.493,-2.032c13.962,2.004 25.057,5.449 33.286,10.335c8.228,4.886 14.946,12.357 20.152,22.414c5.206,10.057 8.775,23.584 10.705,40.581l27.645,3.968l10.821,-75.395c-19.543,-8.125 -35.956,-13.901 -49.239,-17.327c-13.283,-3.427 -26.998,-6.155 -41.146,-8.186c-24.387,-3.5 -46.63,-2.418 -66.727,3.247c-20.098,5.665 -36.136,15.476 -48.113,29.431c-11.978,13.955 -19.463,31.358 -22.456,52.208c-2.057,14.334 -0.836,27.999 3.663,40.995c4.5,12.995 12.337,25.567 23.513,37.716c11.176,12.149 26.88,25.185 47.111,39.109c20.922,14.403 36.273,26.581 46.054,36.534c9.781,9.954 16.411,20.025 19.888,30.214c3.478,10.189 4.214,22.265 2.21,36.227c-3.126,21.78 -11.322,37.513 -24.586,47.199c-13.265,9.686 -30.788,12.966 -52.569,9.839c-15.824,-2.271 -28.434,-6.408 -37.832,-12.412c-9.398,-6.004 -16.581,-14.207 -21.547,-24.61c-4.967,-10.402 -8.136,-24.062 -9.508,-40.978Z" style="fill:#fff;"/></svg>