<?xml version="1.0" encoding="UTF-8" standalone="no"?><!DOCTYPE svg PUBLIC "-//W3C//DTD SVG 1.1//EN" "http://www.w3.org/Graphics/SVG/1.1/DTD/svg11.dtd"><svg width="100%" height="100%" viewBox="0 0 2250 2250" version="1.1" xmlns="http://www.w3.org/2000/svg" xmlns:xlink="http://www.w3.org/1999/xlink" xml:space="preserve" xmlns:serif="http://www.serif.com/" style="fill-rule:evenodd;clip-rule:evenodd;stroke-linejoin:round;stroke-miterlimit:2;"><path d="M1436.05,99.967c-1.487,-1.561 -3.968,-2.194 -6.278,-1.053l-1393.23,689.752c-4.758,2.358 -5.839,8.607 -2.273,12.51l630.558,689.144c3.655,3.983 10.122,3.15 12.704,-1.582l759.254,-1382.52c1.249,-2.322 0.755,-4.684 -0.731,-6.248Zm38.125,36.304c-1.957,-0.167 -4.107,0.629 -5.181,2.63l-751.724,1369c-2.679,4.875 0.38,11.087 5.925,11.794l1281.32,165.423c3.558,0.488 6.533,-2.912 5.33,-6.32l-531.12,-1539.12c-0.753,-2.173 -2.591,-3.244 -4.549,-3.41Zm67.048,25.064c-3.592,-0.676 -7.523,2.669 -6.055,7.005l514.918,1492.46c1.568,4.534 7.85,4.31 9.139,-0.275l157.885,-561.693c1.645,-5.849 0.529,-12.096 -3.034,-17.022l-669.554,-918.299c-0.905,-1.235 -2.103,-1.946 -3.299,-2.172Zm-1466.24,749.722c-2.886,-3.085 -7.644,0.467 -5.599,4.112l662.483,1176.08c1.894,3.375 6.869,1.66 6.288,-2.142l-80.596,-533.135c-1.013,-6.71 -4.082,-12.91 -8.652,-17.89l-573.924,-627.028Zm1903.39,815.225l-1264.98,-163.497c-5.227,-0.617 -9.755,3.86 -8.936,9.037l86.782,573.076c0.721,4.921 5.812,7.966 10.482,6.322l1177.75,-415.568c4.804,-1.721 4.009,-8.73 -1.099,-9.37Z" style="fill:#ed4e43;fill-rule:nonzero;"/></svg>