<?xml version="1.0" encoding="UTF-8" standalone="no"?><!DOCTYPE svg PUBLIC "-//W3C//DTD SVG 1.1//EN" "http://www.w3.org/Graphics/SVG/1.1/DTD/svg11.dtd"><svg width="100%" height="100%" viewBox="0 0 1352 1829" version="1.1" xmlns="http://www.w3.org/2000/svg" xmlns:xlink="http://www.w3.org/1999/xlink" xml:space="preserve" xmlns:serif="http://www.serif.com/" style="fill-rule:evenodd;clip-rule:evenodd;stroke-linejoin:round;stroke-miterlimit:2;"><g id="Guy"><path d="M634.371,207.752c-35.367,-0 -70.786,13.542 -97.771,40.526c-53.968,53.969 -53.968,141.445 0,195.414c53.969,53.968 141.573,53.968 195.541,-0c53.968,-53.969 53.968,-141.445 0,-195.414c-26.985,-26.984 -62.403,-40.526 -97.77,-40.526Zm-165.399,304.708c-52.279,0 -94.807,20.314 -109.801,37.74c-25.938,29.99 -25.887,65.704 -25.076,78.267l-0,509.367c0,25.532 20.187,45.846 45.719,45.846c25.532,0 45.845,-20.719 45.845,-45.846l0,-421.475l41.794,0l-0,440.092l0.379,0l0,599.412c0,40.122 32.827,72.948 72.948,72.948c40.121,-0 72.948,-32.826 72.948,-72.948l-0,-599.412l40.906,0l0,599.412c0,40.122 32.826,72.948 72.948,72.948c40.121,-0 72.948,-32.826 72.948,-72.948l-0,-599.792l0.38,0l-0,-440.092l41.792,0l0,421.475c0,25.533 20.188,45.719 45.719,45.719c25.532,-0 45.846,-20.592 45.846,-45.719l-0,-508.987c1.216,-12.563 0.861,-48.682 -25.076,-78.267c-14.994,-17.021 -57.649,-37.74 -109.928,-37.74l-330.291,0Z" style="fill:#1a1a1a;fill-rule:nonzero;"/><path d="M598.706,153.432c-73.782,-72.508 -198.079,-93.613 -299.09,9.172c-110.679,112.623 -63.081,230.752 -130.088,298.936c-67.007,68.184 -137.35,-12.573 -82.68,-68.542c134.678,-137.383 31.699,-223.31 -38.812,-190.578c-36.68,16.967 -46.873,44.96 -48.019,67.84c-0.579,10.768 13.566,15.395 18.865,5.932c7.618,-13.519 18.139,-27.894 30.866,-34.059c37.337,-18.654 97.772,14.126 -5.778,115.083c-126.56,123.355 51.117,267.542 164.129,152.545c80.176,-81.584 56.243,-200.066 147.589,-292.677c115.183,-116.866 296.95,48.053 189.734,172.08c-75.918,87.769 -180.443,21.078 -290.288,132.852c-142.016,144.509 39.856,329.89 187.656,193.066c39.703,-36.668 77.767,-29.895 102.419,-18.338c-2.451,8.261 -1.676,20.046 12.894,32.364c27.272,22.801 106.801,40.858 120.537,34.685c3.351,-1.374 8.217,-6.262 12.872,-12.356c53.089,32.833 55.269,37.019 79.383,64.051c-5.006,-14.923 -17.888,-30.25 -26.883,-39.757c12.811,3.588 32.479,7.6 47.758,4.944c-35.22,-8.606 -39.939,-8.575 -93.522,-40.228c3.638,-7.094 5.938,-14.524 4.713,-20.063c-3.153,-14.434 -45.668,-70.24 -83.31,-86.56c-20.257,-8.905 -32.016,-5.082 -38.362,0.018c-31.612,-19.063 -105.985,-48.474 -186.214,27.055c-76.058,71.626 -156.673,-11.973 -88.882,-86.722c75.123,-82.549 186.537,-17.736 288.548,-121.539c101.011,-102.785 77.746,-226.696 3.965,-299.204Z" style="fill:#1a1a1a;fill-rule:nonzero;"/><path d="M877.344,1487.93c85.248,38.361 197.222,17.331 250.663,-101.428c58.557,-130.125 -18.781,-215.358 16.67,-294.138c35.451,-78.781 120.367,-32.351 91.55,32.212c-71.148,158.63 43.053,199.224 92.575,149.398c25.78,-25.868 25.655,-52.789 19.462,-72.543c-2.881,-9.309 -16.32,-8.802 -17.849,0.879c-2.224,13.845 -6.642,29.325 -15.5,38.536c-25.809,27.505 -87.303,18.64 -31.138,-99.364c68.659,-144.196 -127.104,-210.786 -186.895,-77.917c-42.419,94.263 14.969,187.204 -33.465,294.313c-61.046,135.132 -266.768,52.248 -214.718,-86.46c36.872,-98.172 146.359,-74.369 204.475,-203.514c75.135,-166.968 -137.083,-267.164 -219.528,-104.9c-22.174,43.516 -56.561,49.693 -81.077,47.615c-0.51,-7.77 -4.857,-17.518 -21.064,-23.397c-30.258,-10.788 -103.329,-1.193 -113.039,8.341c-2.41,2.214 -5.005,7.881 -7.042,14.505c-55.284,-11.209 -58.443,-14.074 -87.349,-29.439c8.917,11.083 24.636,20.042 35.238,25.284c-11.983,0.97 -29.912,3.728 -42.033,10.763c32.551,-3.733 36.542,-5.237 91.874,4.817c-0.862,7.152 -0.485,14.171 2.288,18.482c7.192,11.249 60.706,45.243 97.725,47.29c19.96,1.206 28.731,-5.717 32.513,-12.027c32.766,6.261 105.021,7.905 149.38,-81.243c42.045,-84.532 136.559,-38.908 102.499,45.683c-37.833,93.498 -152.572,73.443 -206.542,193.378c-53.441,118.759 5.08,216.512 90.327,254.874Z" style="fill:#1a1a1a;fill-rule:nonzero;"/><path d="M1295.39,528.877c59.014,-72.5 67.518,-186.114 -33.482,-268.325c-110.665,-90.081 -212.934,-37.291 -279.933,-91.828c-67,-54.536 -0.275,-124.638 54.694,-80.171c134.968,109.585 203.592,9.683 168.194,-50.996c-18.36,-31.571 -44.406,-38.38 -65.088,-37.482c-9.736,0.388 -12.707,13.505 -3.746,17.474c12.807,5.713 26.628,13.967 33.248,24.898c19.933,32.02 -4.462,89.159 -104.031,4.51c-121.662,-103.465 -236.402,68.559 -123.403,160.538c80.166,65.255 184.748,33.727 275.778,108.102c114.864,93.774 -18.185,271.227 -138.82,185.224c-85.371,-60.902 -34.184,-160.571 -144.017,-249.974c-141.999,-115.585 -293.449,63.688 -157.877,185.126c36.341,32.629 33.457,67.447 25.139,90.602c-7.639,-1.508 -18.178,0.183 -28.031,14.33c-18.214,26.462 -27.752,99.54 -21.039,111.377c1.519,2.899 6.327,6.865 12.203,10.539c-25.063,50.535 -28.645,52.85 -50.933,76.826c13.004,-5.763 25.708,-18.646 33.503,-27.542c-2.147,11.83 -4.098,29.864 -0.42,43.387c4.772,-32.414 4.347,-36.658 28.305,-87.537c6.69,2.675 13.569,4.117 18.449,2.547c12.72,-4.054 59.345,-47.014 70.853,-82.258c6.303,-18.977 1.871,-29.234 -3.252,-34.513c14.485,-30.05 34.673,-99.447 -40.05,-165.259c-70.86,-62.39 -2.444,-141.973 70.529,-87.285c80.608,60.626 31.692,166.335 133.691,249.362c100.999,82.211 210.522,50.827 269.536,-21.672Z" style="fill:#1a1a1a;fill-rule:nonzero;"/><path d="M136.771,1035.76c-63.731,81.482 -70.693,207.366 42.82,296.151c124.378,97.281 236.391,36.673 311.692,95.57c75.301,58.896 2.986,137.892 -58.787,89.878c-151.686,-118.338 -225.461,-6.331 -184.99,60.042c20.993,34.534 49.956,41.507 72.819,40.067c10.764,-0.638 13.769,-15.214 3.768,-19.413c-14.291,-6.045 -29.76,-14.88 -37.32,-26.831c-22.743,-34.997 3.018,-98.741 115.001,-7.229c136.832,111.853 260.076,-80.942 133.076,-180.274c-90.1,-70.471 -205.129,-33.338 -307.445,-113.665c-129.102,-101.279 14.281,-300.474 149.602,-207.918c95.765,65.543 41.278,176.918 164.72,273.467c159.593,124.825 323.296,-76.78 170.687,-208.219c-40.909,-35.318 -38.468,-73.902 -29.763,-99.7c8.484,1.505 20.108,-0.594 30.704,-16.458c19.582,-29.669 28.562,-110.726 20.88,-123.679c-1.743,-3.175 -7.148,-7.459 -13.728,-11.398c26.642,-56.45 30.555,-59.088 54.697,-86.096c-14.264,6.657 -28.041,21.184 -36.474,31.194c2.121,-13.135 3.891,-33.129 -0.469,-48.012c-4.582,35.966 -4.02,40.651 -29.432,97.459c-7.46,-2.815 -15.101,-4.262 -20.466,-2.421c-13.988,4.76 -64.647,53.293 -76.621,92.535c-6.565,21.131 -1.441,32.384 4.342,38.115c-15.38,33.559 -36.222,110.773 47.868,181.978c79.741,67.502 5.759,157.025 -76.154,98.089c-90.488,-65.341 -38.644,-183.349 -153.282,-273.012c-113.514,-88.784 -234.014,-51.703 -297.745,29.78Z" style="fill:#1a1a1a;fill-rule:nonzero;"/></g></svg>