<?xml version="1.0" encoding="UTF-8" standalone="no"?><!DOCTYPE svg PUBLIC "-//W3C//DTD SVG 1.1//EN" "http://www.w3.org/Graphics/SVG/1.1/DTD/svg11.dtd"><svg width="100%" height="100%" viewBox="0 0 2250 2110" version="1.1" xmlns="http://www.w3.org/2000/svg" xmlns:xlink="http://www.w3.org/1999/xlink" xml:space="preserve" xmlns:serif="http://www.serif.com/" style="fill-rule:evenodd;clip-rule:evenodd;stroke-linejoin:round;stroke-miterlimit:2;"><g id="Horror"><path d="M1134.58,579.533c-251.632,-0 -455.442,203.81 -455.442,455.441c-0,251.632 203.81,455.442 455.442,455.442c251.631,0 455.442,-203.81 455.442,-455.442c-0,-251.631 -203.811,-455.441 -455.442,-455.441Zm-0,201.746c34.613,0 62.41,27.796 62.41,62.41c-0,34.613 -28.024,62.41 -62.41,62.41c-34.386,-0 -62.41,-27.797 -62.41,-62.41c-0,-34.614 27.796,-62.41 62.41,-62.41Zm-176.057,317.457c34.386,-0 62.41,27.796 62.41,62.41c-0,34.614 -28.024,62.41 -62.41,62.41c-34.386,-0 -62.338,-27.797 -62.338,-62.41c-0,-34.614 27.725,-62.41 62.338,-62.41Zm352.113,-0c34.386,-0 62.339,27.796 62.339,62.41c-0,34.614 -27.725,62.41 -62.339,62.41c-34.385,-0 -62.409,-28.024 -62.409,-62.41c-0,-34.386 27.796,-62.41 62.409,-62.41Z" style="fill:#151316;fill-rule:nonzero;"/><path d="M1134.58,105.873l-114.976,350.736l-240.55,-279.892l27.872,368.011l-329.25,-166.657l166.513,329.395l-368.011,-28.018l280.037,240.55l-350.736,114.976l350.736,115.122l-280.037,240.55l368.011,-28.018l-166.513,329.395l329.25,-166.658l-27.872,368.011l240.55,-279.891l114.976,350.59l115.121,-350.59l240.405,279.891l-27.873,-368.011l329.395,166.658l-166.657,-329.395l368.011,28.018l-280.037,-240.55l350.736,-115.122l-350.736,-114.976l280.037,-240.55l-368.011,28.018l166.657,-329.395l-329.395,166.657l27.873,-368.011l-240.405,279.892l-115.121,-350.736Zm-0,438.565c270.99,0 490.682,219.546 490.681,490.536c0,270.991 -219.691,490.682 -490.681,490.682c-270.991,-0 -490.682,-219.691 -490.682,-490.682c0,-270.99 219.691,-490.536 490.682,-490.536Z" style="fill:#151316;fill-rule:nonzero;"/><path d="M1869.05,1284.19c-67.136,45.463 -136.514,44.113 -189.68,82.579c-12.522,9.061 -24.145,20.33 -34.628,34.94c-1.639,2.283 -3.249,4.649 -4.831,7.1c-68.424,106.098 21.17,212.281 117.614,215.814c40.731,1.492 82.684,-15.325 114.471,-58.188c43.708,-58.89 53.241,-120.544 62.36,-180.253c2.068,-13.545 4.115,-26.99 6.535,-40.28c7.637,-41.94 18.985,-82.334 46.432,-119.456c104.989,-141.999 319.734,-12.782 201.328,140.352c-96.871,125.325 -26.315,151.638 11.328,125.699c12.86,-8.632 22.074,-25.831 28.27,-41.658c4.3,-11.074 20.348,-8.217 21.366,3.549c2.255,24.99 -4.52,56.909 -41.708,80.918c-71.47,46.28 -196.294,-31.171 -71.229,-200.76c50.737,-69.06 -37.9,-145.892 -100.15,-61.698c-62.25,84.194 7.432,205.035 -95.389,344.101c-93.839,126.92 -231.875,123.032 -322.98,55.672c-37.248,-27.54 -66.652,-65.69 -81.986,-109.845c-22.171,-63.842 -14.928,-140.239 40.545,-215.267c68.724,-92.951 156.368,-90.486 225.608,-120.634c26.24,-11.425 49.837,-27.534 68.76,-55.294c19.859,-29.241 23.117,-57.143 16.022,-78.651c-15.09,-45.746 -77.017,-62.566 -125.678,-1.818c-52.672,65.735 -110.065,75.59 -152.579,70.159c6.978,-26.271 11.831,-53.407 14.365,-81.213c24.302,0.249 52.394,-8.858 78.181,-40.418c28.506,-34.971 60.619,-55.542 92.541,-64.615c42.85,-12.18 85.358,-3.64 118.343,18.603c25.502,17.198 45.312,42.588 55.184,72.927c14.357,44.12 7.698,98.707 -33.027,153.789c-21.101,28.539 -43.121,48.767 -65.388,63.846Zm-537.123,-300.08c-0.616,-1.064 -1.194,-2.134 -1.731,-3.207c0.865,0.732 1.707,1.446 2.529,2.143c27.977,23.748 32.549,28.479 93.359,55.189c4.118,-7.322 8.648,-13.366 12.072,-15.369c13.954,-8.795 102.969,-1.369 136.033,19.191c7.58,4.771 12.396,9.824 15.316,14.775c-1.565,33.161 -6.672,65.39 -14.952,96.319c-3.997,-1.391 -7.66,-2.828 -10.947,-4.228c-6.103,6.501 -18.272,12.446 -41.603,5.885c-43.32,-11.946 -97.963,-65.972 -103.588,-81.145c-2.176,-5.82 -0.817,-14.229 2.043,-22.48c-62.952,-26.137 -68.065,-25.383 -107.58,-29.332c16.166,-5.216 38.11,-3.872 52.553,-1.939c-10.429,-8.314 -25.277,-21.577 -33.504,-35.802Z" style="fill:#151316;fill-rule:nonzero;"/><path d="M778.555,1723.2c-8.825,-7.805 -17.451,-16.76 -25.787,-26.939c-33.398,-40.781 -48.529,-79.03 -55.97,-115.151c-16.736,-81.237 5.421,-151.706 -53.872,-215.992l-0.58,-0.627c-0.504,-0.54 -1.009,-1.075 -1.515,-1.605c-70.351,-73.66 -165.87,-46.505 -213.054,16.22c-35.005,46.534 -43.406,112.645 4.807,171.691c24.82,30.419 52.812,51.539 82.003,68.202c17.887,10.21 36.224,18.747 54.558,26.726c60.33,26.253 120.627,46.454 164.73,100.307c111.892,136.626 -66.073,313.094 -185.468,160.729c-97.719,-124.665 -140.543,-62.724 -124.634,-19.866c5.211,14.585 19.623,27.738 33.446,37.628c9.68,6.886 2.972,21.743 -8.684,19.842c-24.779,-3.947 -54.059,-18.348 -68.208,-60.29c-27.326,-80.642 78.389,-182.642 212.101,-19.783c54.497,66.133 150.732,-0.939 84.389,-81.947c-44.714,-54.598 -120.274,-55.184 -198.338,-90.728l-0.488,-0.223c-37.603,-17.189 -75.773,-42.531 -111.344,-85.965c-56.337,-68.791 -68.993,-140.99 -53.635,-203.761c1.166,-4.765 2.494,-9.476 3.975,-14.127c6.105,-19.159 14.834,-37.302 25.707,-54.034c13.44,-20.683 30.157,-39.211 49.245,-54.843c16.172,-13.245 34.046,-24.41 53.072,-33.047c8.574,-3.892 17.381,-7.27 26.372,-10.093c79.206,-24.872 172.652,-6.685 245.896,82.75c60.373,73.719 54.744,143.99 57.754,208.146c0.231,4.918 0.512,9.8 0.878,14.645c2.219,29.387 7.543,57.408 23.475,83.795c4.498,7.45 9.843,14.77 16.202,21.954c13.539,15.244 28.003,25.024 42.155,30.265c62.567,23.168 119.053,-42.387 62.763,-116.82c-10.68,-14.126 -18.913,-27.848 -25.112,-41.082c-10.94,-23.356 -15.542,-45.193 -16.061,-65.049c21.218,12.949 43.497,24.332 66.675,33.988c9.549,3.979 19.251,7.664 29.094,11.045c2.807,5.085 6.132,10.266 10.034,15.532c29.575,39.81 41.215,79.574 39.892,115.35c-2.14,57.841 -38.164,105.258 -87.062,125.592c-15.491,6.442 -32.274,10.166 -49.68,10.642c-31.651,0.866 -65.365,-9.006 -97.127,-32.798c-4.239,-3.176 -8.443,-6.599 -12.604,-10.279Zm105.009,-308.081c0.193,-0.787 0.392,-1.569 0.596,-2.345c6.713,-25.585 19.08,-45.64 28.85,-58.477c-4.805,-7.512 -7.581,-20.767 4.505,-41.775c22.212,-39.064 87.995,-78.777 104.084,-80.507c6.176,-0.681 13.995,2.7 21.291,7.498c40.788,-54.613 41.311,-59.755 54.837,-97.092c1.089,16.951 -5.6,37.894 -11.018,51.422c11.413,-8.674 29.623,-20.894 46.463,-24.585c-32.28,23.07 -37.095,24.95 -79.11,78.886c6.087,5.788 10.835,11.663 11.937,15.475c5.101,15.685 -23.943,100.155 -51.988,127.163c-1.32,1.257 -2.623,2.4 -3.907,3.438c-13.446,10.855 -24.908,10.11 -32.856,6.785c-8.688,14.29 -16.235,33.35 -14.973,55.724c-27.709,-11.325 -54.051,-25.3 -78.711,-41.61Z" style="fill:#151316;fill-rule:nonzero;"/><path d="M1635.94,456.839c18.399,12.641 36.014,29.98 51.951,52.627c7.991,11.357 14.731,22.446 20.411,33.289c30.378,57.985 30.462,108.927 29.673,156.107c-0.888,53.049 -2.88,101.342 35.842,149.545c3.139,3.906 6.357,7.575 9.644,11.015c114.523,119.842 313.481,-38.497 213.149,-181.522c-73.209,-104.445 -186.964,-113.437 -261.725,-187.684c-8.751,-8.69 -16.966,-18.274 -24.521,-29.01c-7.661,-10.887 -13.662,-21.879 -18.165,-32.831c-55.23,-134.33 115.041,-262.497 214.864,-113.94c88.365,131.462 135.593,72.809 122.853,28.905c-4.134,-14.926 -17.548,-29.096 -30.612,-39.967c-9.152,-7.574 -1.378,-21.902 10.109,-19.156c24.424,5.744 52.576,22.242 63.628,65.105c21.37,82.421 -91.504,176.437 -212.98,4.258c-43.043,-60.776 -124.865,-23.512 -106,43.496c2.546,9.044 6.926,18.629 13.483,28.589c0.762,1.157 1.554,2.32 2.375,3.487c60.256,85.632 196.91,57.63 296.439,199.072c90.834,129.087 43.599,258.847 -49.062,324.049c-26.456,18.617 -56.615,31.97 -88.32,38.545c-5.522,1.145 -11.092,2.084 -16.697,2.81c-39.009,5.051 -79.738,-0.249 -118.343,-18.603c-24.5,-11.648 -48.144,-28.554 -69.952,-51.407c-2.266,-2.375 -4.512,-4.814 -6.738,-7.318c-7.425,-8.355 -14.616,-17.433 -21.534,-27.264c-46.918,-66.676 -45.829,-127.31 -43.485,-183.645c0.766,-18.41 1.666,-36.362 1.068,-53.915c-1.149,-33.753 -7.837,-66.035 -31.663,-97.277c-67.176,-87.77 -173.134,-17.39 -110.953,78.671c32.37,50.025 37.462,93.471 31.1,128.287c-31.671,-46.983 -71.264,-88.183 -116.864,-121.691c-32.536,-77.456 -5.95,-146.517 43.987,-182.848c45.351,-32.994 109.96,-38.995 167.038,0.221Zm-108.818,346.969c-7.632,14.82 -16.565,26.616 -23.992,35.022c4.244,7.842 6.046,21.265 -7.54,41.335c-25.002,37.34 -93.507,72.148 -109.68,72.7c-6.209,0.229 -13.761,-3.714 -20.687,-9.031c-15.049,17.35 -25.129,29.432 -32.5,39.212c-0.27,0.358 -0.536,0.713 -0.798,1.064c-13.86,18.573 -17.925,28.967 -28.475,52.557c0.15,-16.985 8.348,-37.385 14.739,-50.481c-12.016,7.818 -31.068,18.677 -48.133,21.13c33.878,-20.654 38.816,-22.178 84.654,-72.905c-5.648,-6.217 -9.955,-12.423 -10.776,-16.304c-3.944,-16.015 31.185,-98.143 61.126,-123.033c16.142,-13.269 28.992,-11.781 37.41,-7.513c12.013,-16.853 22.817,-41.118 17.714,-71.105c25.661,26.23 48.177,55.55 66.938,87.352Z" style="fill:#151316;fill-rule:nonzero;"/><path d="M499.085,696.419c11.741,-15.967 27.078,-31.326 46.42,-45.503c18.705,-13.711 36.732,-23.916 54.161,-31.514c55.543,-24.214 105.028,-21.955 151.13,-22.275c29.24,-0.204 57.12,-1.445 84.32,-11.138c16.059,-5.723 31.881,-14.392 47.607,-27.533c31.846,-26.627 47.383,-58.338 50.656,-90.049c2.887,-27.971 -3.768,-55.941 -17.186,-80.424c-15.128,-27.601 -38.853,-50.769 -67.198,-64.505c-18.371,-8.903 -38.682,-13.844 -59.851,-13.462c-3.085,0.056 -6.189,0.225 -9.308,0.511c-23.599,2.165 -48.047,11.047 -71.893,28.473c-12.882,9.405 -24.259,19.416 -34.449,29.883c-17.852,18.336 -32.059,38.071 -44.327,58.402c-4.254,7.049 -8.274,14.169 -12.133,21.328c-18.505,34.33 -33.284,69.536 -52.181,101.921c-17.255,29.57 -37.942,56.79 -68.033,78.845c-142.433,104.398 -309.096,-82.78 -150.544,-193.826c129.729,-90.889 70.175,-136.975 26.526,-123.388c-14.844,4.421 -28.752,18.106 -39.369,31.378c-7.396,9.296 -21.871,1.801 -19.348,-9.736c5.271,-24.532 21.223,-52.997 63.864,-64.875c81.992,-22.958 178.172,88.078 8.372,212.858c-68.962,50.869 -7.151,150.564 77.301,88.664c32.189,-23.593 47.658,-57.964 62.2,-97.131c7.044,-18.97 13.87,-39.065 22.274,-59.605c6.342,-15.503 13.582,-31.259 22.493,-46.976c18.86,-33.269 45.201,-66.365 86.339,-96.517l1.399,-1.02c41.779,-30.285 83.891,-45.747 123.969,-49.612c11.207,-1.08 22.255,-1.254 33.093,-0.592c0.907,0.056 1.813,0.117 2.718,0.184c26.081,1.936 50.908,8.713 73.752,19.337c35.809,16.653 66.746,42.76 90.006,74.494c14.618,19.943 26.203,42.109 34.06,65.547c5.973,17.817 9.792,36.369 11.15,55.239c0.727,10.094 0.75,20.28 0.022,30.493c-2.433,34.122 -13.246,68.546 -34.185,100.89c-44.243,13.312 -85.853,32.699 -123.861,57.191c-24.773,15.964 -48.015,34.096 -69.458,54.13c-2.057,1.922 -4.098,3.862 -6.122,5.819c-56.268,3.499 -108.419,-6.865 -157.185,9.518c-9.481,3.184 -18.833,7.38 -28.063,12.885c-5.616,3.35 -11.186,7.184 -16.712,11.57c-31.448,25.047 -41.876,54.819 -37.85,79.485c6.155,37.72 46.112,63.496 96.386,42.161c7.231,-3.068 14.676,-7.112 22.264,-12.234c8.835,-5.963 17.477,-11.049 25.912,-15.348c-9.651,18.704 -18.135,38.108 -25.354,58.118c-6.036,16.73 -11.188,33.883 -15.4,51.403c-16.969,5.058 -33.438,7.271 -49.118,7.047c-22.064,-0.315 -42.567,-5.456 -60.704,-14.287c-12.022,-5.854 -23.004,-13.329 -32.713,-22.095c-8.124,-7.335 -15.356,-15.575 -21.559,-24.524c-9.831,-14.184 -17.077,-30.153 -21.192,-47.135c-9.355,-38.604 -2.527,-82.446 26.902,-122.47Zm443.381,-74.542c-5.569,4.726 -11.437,9.358 -17.613,13.885c-20.787,15.236 -41.062,25.663 -60.853,32.761c24.401,-18.043 50.67,-33.706 78.466,-46.646Zm-193.733,170.925c61.592,-11.346 107.297,17.489 129.645,36.476c7.759,-4.395 21.144,-6.456 41.473,6.74c37.816,24.276 73.942,92.095 74.805,108.255c0.349,6.203 -3.446,13.829 -8.629,20.857c52.346,43.659 57.452,44.458 94.01,59.968c-16.986,0.178 -37.54,-7.625 -50.757,-13.761c8.049,11.862 19.273,30.701 22.056,47.715c-21.304,-33.471 -22.924,-38.38 -74.527,-83.229c-6.107,5.767 -12.228,10.193 -16.093,11.089c-15.936,4.253 -98.727,-29.283 -124.19,-58.737c-13.579,-15.882 -12.341,-28.759 -8.236,-37.258c-24.613,-16.837 -64.566,-30.867 -113.948,1.775c-5.209,3.453 -10.403,6.621 -15.573,9.515c11.838,-38.939 28.749,-75.663 49.964,-109.405Z" style="fill:#151316;fill-rule:nonzero;"/><path d="M658.327,269.205c-38.324,35.184 -23.458,87.501 15.167,99.678c18.7,5.894 42.968,2.381 69.465,-17.041c15.633,-11.458 27.322,-25.458 36.877,-41.315c2.918,-4.843 5.637,-9.86 8.209,-15.03c11.136,-22.389 19.505,-47.661 29.292,-74.229c0.256,-0.693 0.512,-1.388 0.77,-2.083c20.432,-55.168 47.418,-115.722 118.158,-167.572c127.308,-93.312 257.956,-48.593 324.937,42.791c62.123,84.755 69.48,209.651 -31.343,301.768c-7.886,7.205 -16.434,14.209 -25.669,20.978c-63.555,46.583 -122.333,48.22 -177.093,47.145c-32.611,-0.641 -63.797,-2.243 -93.718,4.112c-21.475,4.561 -42.299,13.222 -62.531,29.279c-35.3,28.115 -44.115,62.186 -35.732,88.303c5.275,16.432 17.358,29.716 33.935,36.387c-24.773,15.964 -48.015,34.096 -69.458,54.13c-24.61,-20.1 -41.987,-48.127 -48.797,-79.379c-5.4,-24.78 -4.156,-51.587 5.392,-78.078c8.172,-22.67 22.425,-45.108 43.801,-65.845c7.414,-7.192 15.684,-14.179 24.854,-20.9c32.337,-23.702 62.645,-36.93 91.35,-44.321c13.146,-3.385 25.956,-5.546 38.471,-6.929c21.201,-2.342 41.555,-2.45 61.261,-2.491c9.941,-0.02 19.716,-0.024 29.353,-0.288c40.774,-1.118 79.056,-6.906 116.783,-38.431c15.571,-13.019 27.243,-27.253 35.488,-42.109c38.838,-69.97 1.669,-153.721 -62.089,-189.164c-0.498,-0.277 -0.998,-0.551 -1.5,-0.822c-42.239,-22.83 -95.83,-24.52 -146.68,12.638c-46.374,33.861 -73.247,75.563 -95.421,118.135c-7.64,14.668 -14.722,29.44 -21.852,44.03c-6.787,13.889 -13.617,27.613 -21.012,40.926c-14.389,25.904 -30.919,50.252 -53.436,71.231c-6.015,5.605 -12.458,10.969 -19.401,16.058c-51.295,37.597 -105.733,37.378 -146.991,16.518c-26.278,-13.287 -47.21,-34.947 -58.578,-60.543c-20.344,-45.807 -10.059,-104.218 55.024,-149.801c129.73,-90.889 70.176,-136.975 26.526,-123.389c-14.843,4.422 -28.751,18.107 -39.369,31.379c-7.395,9.296 -21.87,1.801 -19.347,-9.736c5.271,-24.532 21.223,-52.997 63.864,-64.875c81.992,-22.959 178.172,88.078 8.372,212.857c-2.632,1.942 -5.074,3.955 -7.332,6.028Zm172.285,426.528c10.686,-9.58 21.827,-18.662 33.388,-27.21c24.401,-18.043 50.67,-33.706 78.466,-46.646c50.171,-23.359 105.314,-37.848 163.415,-41.456c22.754,8.169 40.369,20.503 51.835,30.244c7.759,-4.394 21.144,-6.455 41.473,6.741c37.815,24.276 73.941,92.095 74.805,108.255c0.349,6.203 -3.447,13.829 -8.63,20.857c52.346,43.66 57.453,44.458 94.01,59.968c-16.986,0.178 -37.539,-7.625 -50.757,-13.761c8.049,11.862 19.274,30.701 22.056,47.715c-21.304,-33.472 -22.924,-38.38 -74.527,-83.229c-6.106,5.768 -12.228,10.194 -16.092,11.089c-15.937,4.252 -98.727,-29.283 -124.191,-58.737c-13.579,-15.882 -12.34,-28.759 -8.235,-37.258c-24.613,-16.837 -64.567,-30.867 -113.948,1.775c-60.296,39.96 -118.448,41.823 -163.068,21.653Z" style="fill:#151316;fill-rule:nonzero;"/><path d="M313.012,1401.66c-55.272,16.158 -114.374,8.695 -164.845,-16.24c-101.583,-50.184 -168.202,-171.141 -98.289,-312.656c76.604,-155.06 215.938,-148.396 262.315,-242.272c46.378,-93.877 -62.497,-137.533 -100.687,-60.819c-93.566,188.805 -219.55,113.256 -211.103,28.531c4.332,-44.053 29.613,-64.682 52.865,-74.113c10.928,-4.478 20.811,8.484 12.933,17.375c-11.238,12.751 -22.315,28.814 -24.105,44.198c-5.84,45.341 49.843,96.036 116.95,-47.445c46.438,-99.327 134.964,-100.098 188.782,-53.321c25.874,22.489 43.725,55.968 45.021,94.77c0.768,22.973 -4.269,47.813 -16.881,73.342c-55.492,112.325 -186.663,130.265 -249.536,258.118c-79.37,161.247 156.707,289.823 246.355,134.235c30.459,-52.901 21.693,-99.788 12.774,-151.284c-6.133,-35.406 -12.337,-72.991 -5.913,-116.206c3.687,-24.805 11.535,-51.464 25.944,-80.631c13.609,-27.546 30.265,-48.953 48.629,-64.856c5.829,-5.049 11.831,-9.542 17.962,-13.502c25.926,-16.743 54.165,-23.933 81.478,-23.106c36.296,1.098 70.958,16.354 96.386,42.161c8.826,8.958 16.539,19.186 22.822,30.536c-6.036,16.73 -11.188,33.883 -15.4,51.403c-8.875,36.912 -13.576,75.451 -13.576,115.091c0,84.288 21.254,163.613 58.694,232.907c-19.224,-9.173 -37.948,-20.816 -49.999,-33.899c-16.509,-17.744 -16.792,-31.283 -13.804,-39.685c-31.108,-25.827 -88.329,-92.154 -39.118,-202.352c11.205,-25.08 13.063,-47.209 8.685,-65.015c-9.881,-40.186 -51.527,-58.357 -89.188,-38.754c-1.415,0.737 -2.826,1.527 -4.229,2.372c-13.622,8.202 -26.533,21.518 -36.994,40.716c-3.097,5.706 -5.727,11.367 -7.941,16.995c-23.071,58.631 -1.07,113.581 7.879,176.126c4.225,29.532 5.54,60.758 -2.173,94.864c-1.211,5.351 -2.643,10.774 -4.322,16.272c-3.746,12.269 -8.716,24.915 -15.174,37.987c-26.367,53.371 -62.212,89.541 -102.084,111.203c-13.322,7.238 -27.094,12.855 -41.113,16.954Zm377.792,-469.635c1.19,21.825 -1.975,45.607 -10.559,70.843c1.682,-24.184 5.251,-47.847 10.559,-70.843Zm-1.072,201.13c0.37,0.389 0.741,0.773 1.111,1.153c7.661,-5.512 20.131,-8.957 38.12,1.673c33.411,19.992 80.746,95.744 79.311,112.175c-0.214,3.961 -3.516,10.755 -8.142,17.767c53.091,43.078 58.205,43.825 94.854,59.026c-17.239,0.199 -37.733,-7.602 -50.808,-13.48c8.327,11.958 19.564,30.855 22.324,47.615c-21.593,-33.327 -23.262,-38.219 -75.309,-82.235c-6.027,6.319 -12.883,11.376 -19.053,12.104c-3.435,0.415 -9.476,-0.35 -17.149,-2.133c-30.585,-46.019 -53.023,-97.925 -65.259,-153.665Z" style="fill:#151316;fill-rule:nonzero;"/><path d="M1478.35,1738.23c-19.425,23.97 -46.852,41.784 -79.61,48.782c-36.426,7.782 -79.444,2.189 -125.381,-23.186c-24.032,-13.275 -43.207,-27.75 -58.934,-42.923c-68.885,-66.459 -71.629,-146.319 -126.641,-197.448c15.401,1.457 31.009,2.203 46.791,2.203c20.678,-0 41.057,-1.279 61.062,-3.763c19.86,35.659 31.804,72.616 49.745,104.731c15.357,27.492 35.108,51.437 67.979,67.982c3.322,1.665 6.605,3.15 9.845,4.463c93.118,37.743 150.147,-66.581 55.492,-123.756c-39.951,-24.139 -63.082,-51.974 -75.804,-79.289c26.133,-9.543 51.226,-21.245 75.065,-34.889c7.173,16.759 20.563,33.509 43.862,47.894c16.311,10.043 30.134,21.072 41.652,32.769c61.553,62.514 57.263,144.127 14.877,196.43Zm-346.988,216.051c1.901,0.655 3.819,1.339 5.756,2.053c15.414,5.683 31.961,13.261 49.65,23.004c75.136,41.206 139.635,-56.772 47.98,-107.4c-20.422,-11.281 -41.786,-15.829 -64.332,-17.01c-22.303,-1.168 -45.762,0.959 -70.612,3.123c-62.777,5.468 -134.428,11.175 -218.718,-35.385c-9.561,-5.281 -18.529,-10.855 -26.922,-16.688c-26.975,-18.747 -48.011,-40.172 -63.71,-63.186c-4.377,-6.415 -8.338,-12.954 -11.899,-19.593c-30.511,-56.894 -31.521,-121.115 -11.245,-177.782c2.304,-6.437 4.882,-12.777 7.723,-18.998c2.574,-5.636 5.363,-11.173 8.359,-16.597c16.281,-29.475 38.665,-55.579 65.714,-75.709c9.812,7.031 19.894,13.708 30.227,20.014c21.218,12.949 43.497,24.332 66.675,33.988c-19.164,6.358 -36.281,17.202 -50.614,31.061c-40.844,39.491 -59.083,103.467 -37.651,157.902c9.424,23.935 26.519,46.025 52.734,63.378c3.68,2.436 7.54,4.779 11.584,7.02c5.314,2.948 10.615,5.661 15.905,8.158c46.917,22.149 92.874,27.328 137.783,29.069c39.437,1.529 78.065,0.407 115.823,5.796c28.055,4.004 55.629,11.603 82.699,26.555c154.581,85.388 54.75,315.271 -112.635,218.049c-136.984,-79.535 -153.783,-6.129 -123.114,27.772c10.248,11.613 28.51,18.483 45.015,22.541c11.543,2.806 10.824,19.09 -0.706,21.648c-24.476,5.524 -57.009,3.009 -85.703,-30.695c-49.32,-57.772 -6.609,-170.599 134.234,-122.088Zm-247.202,-541.508c36.887,-17.926 79.709,-25.632 125.944,-18.554c28.91,4.425 59.155,14.632 90.118,31.735c32.986,18.221 56.185,39.769 73.823,62.779c-13.008,1.116 -26.172,1.685 -39.47,1.685c-60.982,0 -119.155,-11.97 -172.3,-33.69c-27.709,-11.325 -54.051,-25.3 -78.711,-41.61c-0.591,-0.391 -1.181,-0.784 -1.77,-1.177c0.786,-0.394 1.574,-0.784 2.366,-1.168Zm486.589,11.752c-24.806,15.065 -51.166,27.828 -78.786,37.992c-6.047,-30.591 -1.498,-58.072 3.392,-75.697c-7.248,-5.194 -14.742,-16.475 -11.309,-40.466c6.141,-44.516 52.505,-105.793 66.806,-113.367c5.483,-2.923 13.998,-2.682 22.553,-0.932c17.625,-65.845 16.204,-70.815 14.919,-110.506c7.298,15.339 8.853,37.269 8.838,51.842c7.383,-12.288 19.762,-30.39 34.033,-40.063c-21.423,33.396 -25.197,36.928 -44.214,102.599c7.8,3.118 14.388,6.814 16.824,9.945c10.555,12.674 14.908,101.892 -1.121,137.375c-8.707,18.995 -20.913,23.281 -30.35,23.127c-0.947,5.638 -1.563,11.744 -1.585,18.151Z" style="fill:#151316;fill-rule:nonzero;"/></g></svg>