<?xml version="1.0" encoding="UTF-8" standalone="no"?><!DOCTYPE svg PUBLIC "-//W3C//DTD SVG 1.1//EN" "http://www.w3.org/Graphics/SVG/1.1/DTD/svg11.dtd"><svg width="100%" height="100%" viewBox="0 0 796 2148" version="1.1" xmlns="http://www.w3.org/2000/svg" xmlns:xlink="http://www.w3.org/1999/xlink" xml:space="preserve" xmlns:serif="http://www.serif.com/" style="fill-rule:evenodd;clip-rule:evenodd;stroke-linejoin:round;stroke-miterlimit:2;"><path d="M398.12,2147.64c-46.856,-0 -93.78,-17.942 -129.53,-53.691c-71.499,-71.5 -71.499,-187.392 0,-258.892c71.5,-71.5 187.56,-71.5 259.06,-0c71.499,71.5 71.499,187.392 -0,258.892c-35.75,35.749 -82.674,53.69 -129.53,53.691Zm-219.127,-403.69c-69.262,-0.001 -125.604,-26.913 -145.469,-50c-34.363,-39.732 -34.295,-87.047 -33.221,-103.691l-0,-674.83c-0,-33.825 26.744,-60.738 60.57,-60.738c33.825,-0 60.738,27.45 60.738,60.738l-0,558.388l55.369,-0l-0,-583.052l0.503,-0l0,-794.125c0,-53.155 43.49,-96.644 96.644,-96.644c53.154,-0 96.644,43.489 96.644,96.644l0,794.125l54.194,-0l0,-794.125c0,-53.155 43.49,-96.644 96.644,-96.644c53.155,-0 96.644,43.489 96.644,96.644l0,794.628l0.504,0l-0,583.052l55.369,-0l-0,-558.387c-0,-33.826 26.744,-60.571 60.57,-60.571c33.825,0 60.738,27.282 60.738,60.571l-0,674.326c1.611,16.644 1.141,64.497 -33.222,103.691c-19.865,22.55 -76.374,50 -145.636,50l-437.583,-0Z" style="fill:#151316;fill-rule:nonzero;"/></svg>