<?xml version="1.0" encoding="UTF-8" standalone="no"?><!DOCTYPE svg PUBLIC "-//W3C//DTD SVG 1.1//EN" "http://www.w3.org/Graphics/SVG/1.1/DTD/svg11.dtd"><svg width="100%" height="100%" viewBox="0 0 2250 2250" version="1.1" xmlns="http://www.w3.org/2000/svg" xmlns:xlink="http://www.w3.org/1999/xlink" xml:space="preserve" xmlns:serif="http://www.serif.com/" style="fill-rule:evenodd;clip-rule:evenodd;stroke-linejoin:round;stroke-miterlimit:2;"><path d="M739.73,56.257l-51.1,66.63l-75.981,92.012c-20.236,24.496 -16.808,60.743 7.682,80.991c10.73,8.865 23.655,13.192 36.571,13.192c16.566,0 33.032,-7.108 44.419,-20.874l86.836,-105.037c2.373,-2.875 4.286,-5.865 6.012,-9.018l739.269,493.626l-347.509,66.295c-3.783,-0.652 -7.881,-0.823 -11.856,0l-134.762,27.888l-69.301,13.192c-4.168,0.796 -8.15,2.128 -12.023,3.507l-73.476,15.196c-17.089,3.521 -28.242,20.317 -24.715,37.406l117.061,567.769c0.892,4.328 2.615,8.269 5.009,11.69l-416.475,640.744c-27.713,42.627 -15.737,99.701 26.886,127.414c15.496,10.079 32.901,14.863 50.097,14.863c30.117,-0 59.671,-14.785 77.317,-41.915l458.223,-704.869l24.381,91.177l-71.472,537.043c-6.723,50.402 28.601,96.65 78.986,103.367c4.136,0.55 8.296,0.835 12.358,0.835c45.432,0 85.004,-33.723 91.177,-79.989l76.481,-573.447l-78.819,-293.904c-0.946,-3.532 -2.521,-6.706 -3.841,-10.019l-68.967,-333.982l395.936,-75.48c43.674,-8.331 72.282,-50.482 63.957,-94.183c-6.108,-32.094 -30.434,-55.952 -60.284,-63.123l0.334,-0.501l-839.13,-560.422l0.167,-0.668l-19.538,-12.357l-7.347,-4.842l-0.167,0.167l-32.396,-20.374Zm159.142,372.056c-40.739,0 -81.469,15.508 -112.552,46.591c-62.165,62.165 -62.165,162.939 0,225.104c62.165,62.165 162.939,62.165 225.104,-0c62.165,-62.165 62.165,-162.939 0,-225.104c-31.083,-31.083 -71.813,-46.59 -112.552,-46.591Z" style="fill:#151316;fill-rule:nonzero;"/></svg>